<?xml version="1.0" encoding="UTF-8"?>
<svg xmlns="http://www.w3.org/2000/svg" xmlns:xlink="http://www.w3.org/1999/xlink" width="299.05pt" height="356.85pt" viewBox="0 0 299.05 356.85" version="1.1">
<g id="surface1">
<path style=" stroke:none;fill-rule:nonzero;fill:rgb(13.699341%,12.199402%,12.5%);fill-opacity:1;" d="M 148.398438 59.355469 L 148.398438 53.964844 L 147.5 53.964844 L 147.5 59.355469 L 145.402344 59.355469 C 145.402344 50.296875 146.828125 46.703125 149.523438 46.703125 C 152.21875 46.703125 153.644531 50.296875 153.644531 59.355469 L 151.546875 59.355469 L 151.546875 53.964844 L 150.644531 53.964844 L 150.644531 59.355469 Z M 218.855469 24.109375 L 221.085938 33.503906 L 230.527344 35.652344 L 221.316406 37.605469 L 218.855469 46.535156 L 216.242188 37.738281 L 207.824219 35.457031 L 216.425781 33.503906 Z M 79.546875 24.109375 L 81.78125 33.503906 L 91.222656 35.652344 L 82.011719 37.605469 L 79.546875 46.535156 L 76.9375 37.738281 L 68.519531 35.457031 L 77.117188 33.503906 Z M 265.949219 81.65625 L 268.183594 91.050781 L 277.625 93.199219 L 268.414063 95.152344 L 265.949219 104.082031 L 263.339844 95.285156 L 254.921875 93.003906 L 263.523438 91.050781 Z M 32.449219 81.65625 L 34.683594 91.050781 L 44.125 93.199219 L 34.914063 95.148438 L 32.449219 104.078125 L 29.839844 95.285156 L 21.421875 93.003906 L 30.023438 91.050781 Z M 287.371094 153.148438 L 289.605469 162.542969 L 299.046875 164.6875 L 289.835938 166.640625 L 287.371094 175.574219 L 284.761719 166.777344 L 276.34375 164.496094 L 284.941406 162.542969 Z M 11.03125 153.144531 L 13.261719 162.539063 L 22.707031 164.6875 L 13.492188 166.640625 L 11.03125 175.570313 L 8.417969 166.773438 L 0 164.492188 L 8.601563 162.539063 Z M 149.199219 -0.00390625 L 151.433594 9.390625 L 160.878906 11.535156 L 151.664063 13.488281 L 149.199219 22.421875 L 146.589844 13.625 L 138.171875 11.34375 L 146.773438 9.390625 Z M 69.53125 216.027344 C 74.035156 214.570313 71.519531 205.164063 81.191406 206.757813 C 78.144531 208.214844 81.984375 216.027344 69.53125 216.027344 Z M 59.035156 210.921875 C 63.539063 209.464844 61.019531 200.058594 70.691406 201.644531 C 67.644531 203.101563 71.488281 210.921875 59.035156 210.921875 Z M 42.6875 188.289063 C 47.402344 187.886719 47.066406 178.152344 56.132813 181.878906 C 52.835938 182.613281 54.820313 191.09375 42.6875 188.289063 Z M 50.746094 169.632813 C 53.589844 173.414063 61.664063 167.972656 63.308594 177.636719 C 60.941406 175.226563 54.800781 181.40625 50.746094 169.632813 Z M 48.074219 161.890625 C 52.800781 161.648438 52.804688 151.910156 61.734375 155.949219 C 58.414063 156.570313 60.101563 165.113281 48.074219 161.890625 Z M 71.109375 169.578125 C 73.410156 165.4375 65.15625 160.277344 73.3125 154.84375 C 72.078125 157.988281 80.21875 161.085938 71.109375 169.578125 Z M 61.636719 122.085938 C 65.851563 124.242188 70.722656 115.8125 76.4375 123.773438 C 73.253906 122.648438 70.445313 130.890625 61.636719 122.085938 Z M 106.398438 73.605469 C 108.023438 69.15625 99.0625 65.351563 106.269531 58.710938 C 105.539063 62.007813 114.0625 63.789063 106.398438 73.605469 Z M 103.0625 71.644531 C 98.398438 83.1875 92.589844 76.699219 90.097656 78.976563 C 92.246094 69.414063 100.023438 75.273438 103.0625 71.644531 Z M 96.574219 68.34375 C 84.351563 65.964844 89.613281 59.027344 86.902344 57.015625 C 96.699219 57.300781 92.433594 66.054688 96.574219 68.34375 Z M 229.515625 216.027344 C 217.0625 216.027344 220.902344 208.214844 217.855469 206.757813 C 227.527344 205.164063 225.011719 214.570313 229.515625 216.027344 Z M 240.015625 210.921875 C 227.558594 210.921875 231.402344 203.101563 228.355469 201.644531 C 238.027344 200.058594 235.507813 209.464844 240.015625 210.921875 Z M 256.359375 188.289063 C 244.226563 191.09375 246.210938 182.613281 242.914063 181.878906 C 251.980469 178.152344 251.644531 187.886719 256.359375 188.289063 Z M 248.300781 169.632813 C 244.246094 181.40625 238.105469 175.226563 235.738281 177.636719 C 237.382813 167.972656 245.457031 173.414063 248.300781 169.632813 Z M 250.972656 161.890625 C 238.945313 165.113281 240.632813 156.570313 237.3125 155.949219 C 246.242188 151.910156 246.246094 161.648438 250.972656 161.890625 Z M 227.9375 169.578125 C 218.828125 161.085938 226.96875 157.988281 225.734375 154.84375 C 233.894531 160.277344 225.636719 165.4375 227.9375 169.578125 Z M 237.410156 122.085938 C 228.605469 130.890625 225.792969 122.648438 222.609375 123.773438 C 228.320313 115.8125 233.191406 124.242188 237.410156 122.085938 Z M 192.648438 73.605469 C 184.980469 63.789063 193.507813 62.007813 192.777344 58.710938 C 199.984375 65.351563 191.023438 69.15625 192.648438 73.605469 Z M 195.984375 71.644531 C 199.023438 75.273438 206.800781 69.414063 208.949219 78.976563 C 206.457031 76.699219 200.648438 83.1875 195.984375 71.644531 Z M 202.472656 68.34375 C 206.613281 66.054688 202.351563 57.300781 212.144531 57.015625 C 209.433594 59.027344 214.695313 65.964844 202.472656 68.34375 Z M 149.550781 326.777344 C 147.277344 326.832031 146.109375 330.394531 146.765625 335.785156 C 147.695313 344.792969 146.105469 349.300781 141.867188 354.332031 C 144.515625 347.839844 144.78125 344.660156 143.453125 341.878906 C 140.273438 335.121094 139.746094 330.621094 143.453125 326.113281 C 137.097656 325.453125 134.050781 330.488281 135.773438 338.699219 C 137.625 347.445313 137.890625 352.742188 129.675781 356.851563 C 134.578125 349.960938 134.050781 344.132813 131.398438 339.628906 C 130.339844 341.878906 129.015625 342.9375 126.101563 344.132813 C 132.59375 335.257813 130.605469 325.453125 123.339844 327.722656 C 118.417969 329.160156 114.441406 336.316406 118.8125 340.953125 C 123.1875 345.191406 121.992188 349.828125 118.019531 354.199219 C 119.742188 348.105469 118.8125 344.660156 114.441406 342.011719 C 110.996094 339.890625 111.132813 335.390625 111.660156 331.8125 C 104.902344 330.222656 101.460938 337.242188 101.328125 343.207031 C 91.257813 317.238281 145.308594 336.847656 145.308594 284.386719 C 145.308594 276.703125 146.371094 219.871094 146.371094 215.5 C 146.371094 209.140625 146.238281 199.867188 138.949219 192.847656 C 131.269531 185.429688 107.289063 193.773438 120.535156 205.960938 C 113.796875 206.738281 113.269531 201.175781 113.5 200.6875 C 104.359375 214.695313 93.246094 208.34375 91.921875 203.3125 C 96.027344 206.886719 100.398438 208.476563 105.964844 201.324219 C 115.238281 188.34375 124.644531 180.128906 142.394531 187.015625 C 141.46875 174.5625 117.226563 172.046875 112.984375 171.78125 C 102.121094 170.988281 100.136719 182.910156 109.804688 183.96875 C 103.445313 185.957031 101.460938 183.441406 99.738281 180.128906 C 96.824219 192.183594 88.34375 204.503906 77.347656 195.628906 C 92.449219 199.070313 94.703125 180.128906 93.777344 176.417969 C 88.210938 180.789063 85.164063 184.632813 70.328125 184.765625 C 60.523438 185.160156 57.210938 198.011719 70.195313 194.964844 C 51.78125 204.902344 54.695313 181.851563 68.738281 181.984375 C 65.691406 179.066406 67.945313 174.5625 71.386719 172.3125 C 68.207031 180.527344 77.613281 183.042969 82.382813 178.804688 C 88.742188 172.3125 98.414063 166.21875 106.492188 167.144531 C 99.074219 147.140625 85.695313 139.195313 73.375 138.796875 C 65.027344 139.195313 64.5 148.863281 72.183594 150.585938 C 61.1875 152.972656 57.875 140.386719 69.003906 135.085938 C 77.480469 130.714844 94.703125 138.53125 100.53125 147.140625 C 103.710938 145.15625 109.144531 145.554688 111.660156 149.394531 C 100.003906 146.214844 96.425781 166.21875 140.144531 170.855469 C 142.792969 155.089844 120.140625 143.828125 121.199219 159.726563 C 117.09375 155.089844 119.078125 149.261719 122.65625 147.011719 C 106.757813 137.207031 93.113281 124.355469 82.382813 128.464844 C 83.972656 125.679688 86.355469 124.753906 90.332031 124.09375 C 81.71875 114.6875 83.707031 108.59375 81.984375 103.027344 C 79.601563 94.683594 71.917969 92.828125 67.679688 101.703125 C 65.558594 92.429688 76.15625 87.660156 84.371094 94.417969 C 85.296875 84.085938 100.53125 84.746094 101.988281 96.933594 C 98.808594 91.371094 90.066406 88.984375 88.609375 99.054688 C 87.550781 112.832031 97.882813 124.886719 105.035156 128.066406 C 101.328125 100.511719 122.257813 89.515625 125.4375 77.992188 C 127.691406 69.113281 115.636719 68.851563 117.355469 77.0625 C 110.734375 67.65625 128.882813 63.683594 131.003906 74.546875 C 131.53125 78.253906 129.808594 84.085938 121.859375 93.488281 C 116.429688 99.585938 109.144531 112.167969 110.996094 121.308594 C 111.296875 122.699219 112.820313 123.761719 114.046875 122.632813 C 119.511719 117.832031 125.835938 122.203125 128.351563 129.257813 C 124.179688 125.050781 121.859375 125.21875 118.945313 125.285156 C 111.328125 125.515625 113.285156 138.519531 121.332031 140.121094 C 127.691406 141.3125 135.902344 146.347656 140.671875 153.898438 C 141.667969 155.324219 143.089844 154.761719 143.585938 153.632813 C 144.382813 150.851563 144.117188 146.878906 143.984375 142.242188 C 143.984375 135.882813 136.433594 132.4375 132.988281 140.914063 C 132.59375 130.316406 138.6875 129.257813 144.117188 131.246094 C 143.71875 113.757813 133.652344 105.546875 131.796875 99.1875 C 128.882813 88.324219 143.320313 83.421875 147.164063 95.875 C 143.984375 89.117188 133.121094 92.429688 139.746094 104.882813 C 141.992188 109.90625 144.902344 114.933594 149.523438 120.484375 C 154.144531 114.933594 157.054688 109.90625 159.300781 104.882813 C 165.925781 92.429688 155.0625 89.117188 151.882813 95.875 C 155.726563 83.421875 170.164063 88.324219 167.25 99.1875 C 165.394531 105.546875 155.324219 113.757813 154.929688 131.246094 C 160.359375 129.257813 166.453125 130.316406 166.058594 140.914063 C 162.613281 132.4375 155.0625 135.882813 155.0625 142.242188 C 154.929688 146.878906 154.664063 150.851563 155.460938 153.632813 C 155.953125 154.761719 157.378906 155.324219 158.371094 153.898438 C 163.144531 146.347656 171.355469 141.3125 177.714844 140.121094 C 185.761719 138.519531 187.71875 125.515625 180.101563 125.285156 C 177.1875 125.21875 174.867188 125.050781 170.691406 129.257813 C 173.210938 122.203125 179.535156 117.832031 185.003906 122.632813 C 186.226563 123.761719 187.75 122.699219 188.050781 121.308594 C 189.902344 112.167969 182.617188 99.585938 177.1875 93.488281 C 169.238281 84.085938 167.515625 78.253906 168.046875 74.546875 C 170.164063 63.683594 188.3125 67.65625 181.6875 77.0625 C 183.410156 68.851563 171.355469 69.113281 173.609375 77.992188 C 176.789063 89.515625 197.71875 100.511719 194.011719 128.066406 C 201.164063 124.886719 211.496094 112.832031 210.4375 99.054688 C 208.980469 88.984375 200.238281 91.371094 197.058594 96.933594 C 198.515625 84.746094 213.75 84.085938 214.675781 94.417969 C 222.890625 87.660156 233.488281 92.429688 231.367188 101.703125 C 227.128906 92.828125 219.445313 94.683594 217.0625 103.027344 C 215.339844 108.59375 217.324219 114.6875 208.714844 124.09375 C 212.6875 124.753906 215.074219 125.679688 216.664063 128.464844 C 205.933594 124.355469 192.289063 137.207031 176.390625 147.011719 C 179.96875 149.261719 181.953125 155.089844 177.847656 159.726563 C 178.90625 143.828125 156.253906 155.089844 158.902344 170.855469 C 202.621094 166.21875 199.046875 146.214844 187.386719 149.394531 C 189.902344 145.554688 195.335938 145.15625 198.515625 147.140625 C 204.34375 138.53125 221.566406 130.714844 230.042969 135.085938 C 241.171875 140.386719 237.859375 152.972656 226.863281 150.585938 C 234.546875 148.863281 234.019531 139.195313 225.671875 138.796875 C 213.351563 139.195313 199.972656 147.140625 192.554688 167.144531 C 200.632813 166.21875 210.304688 172.3125 216.664063 178.804688 C 221.433594 183.042969 230.839844 180.527344 227.660156 172.3125 C 231.105469 174.5625 233.355469 179.066406 230.308594 181.984375 C 244.351563 181.851563 247.265625 204.902344 228.851563 194.964844 C 241.835938 198.011719 238.523438 185.160156 228.71875 184.765625 C 213.882813 184.632813 210.835938 180.789063 205.269531 176.417969 C 204.34375 180.128906 206.597656 199.070313 221.699219 195.628906 C 210.703125 204.503906 202.222656 192.183594 199.308594 180.128906 C 197.585938 183.441406 195.601563 185.957031 189.242188 183.96875 C 198.910156 182.910156 196.925781 170.988281 186.0625 171.78125 C 181.820313 172.046875 157.578125 174.5625 156.652344 187.015625 C 174.402344 180.128906 183.808594 188.34375 193.082031 201.324219 C 198.644531 208.476563 203.019531 206.886719 207.125 203.3125 C 205.800781 208.34375 194.6875 214.695313 185.546875 200.6875 C 185.777344 201.175781 185.25 206.738281 178.511719 205.960938 C 191.757813 193.773438 167.777344 185.429688 160.097656 192.847656 C 152.808594 199.867188 152.675781 209.140625 152.675781 215.5 C 152.675781 219.871094 153.734375 276.703125 153.734375 284.386719 C 153.734375 336.847656 207.785156 317.238281 197.71875 343.207031 C 197.585938 337.242188 194.144531 330.222656 187.386719 331.8125 C 187.914063 335.390625 188.050781 339.890625 184.605469 342.011719 C 180.230469 344.660156 179.304688 348.105469 181.027344 354.199219 C 177.054688 349.828125 175.859375 345.191406 180.230469 340.953125 C 184.605469 336.316406 180.628906 329.160156 175.710938 327.722656 C 168.441406 325.453125 166.453125 335.257813 172.945313 344.132813 C 170.03125 342.9375 168.707031 341.878906 167.644531 339.628906 C 164.996094 344.132813 164.46875 349.960938 169.367188 356.851563 C 161.15625 352.742188 161.421875 347.445313 163.273438 338.699219 C 164.996094 330.488281 161.949219 325.453125 155.59375 326.113281 C 159.300781 330.621094 158.769531 335.121094 155.59375 341.878906 C 154.269531 344.660156 154.53125 347.839844 157.183594 354.332031 C 152.941406 349.300781 151.351563 344.792969 152.277344 335.785156 C 152.9375 330.394531 151.769531 326.832031 149.550781 326.777344 Z M 136.792969 58.234375 L 136.792969 56.136719 L 140.535156 56.136719 L 140.535156 55.390625 L 134.546875 55.390625 L 134.546875 43.109375 C 137.203125 43.632813 136.832031 48.011719 137.917969 51.34375 C 138.367188 52.46875 139.789063 52.394531 140.386719 51.570313 C 142.074219 49.136719 142.371094 47.675781 142.632813 44.679688 C 143.082031 39.253906 143.046875 35.992188 147.726563 35.394531 L 147.726563 43.558594 L 151.320313 43.558594 L 151.320313 35.394531 C 156 35.992188 155.964844 39.253906 156.410156 44.679688 C 156.675781 47.675781 156.976563 49.136719 158.660156 51.570313 C 159.257813 52.394531 160.683594 52.46875 161.132813 51.34375 C 162.21875 48.011719 161.84375 43.632813 164.5 43.109375 L 164.5 55.390625 L 158.511719 55.390625 L 158.511719 56.136719 L 162.253906 56.136719 L 162.253906 58.234375 L 154.308594 58.234375 C 154.199219 50.222656 152.867188 46.027344 149.523438 46.027344 C 146.179688 46.027344 144.847656 50.222656 144.738281 58.234375 L 136.792969 58.234375 "/>
</g>
</svg>
