<?xml version="1.0" encoding="UTF-8" standalone="no"?><!DOCTYPE svg PUBLIC "-//W3C//DTD SVG 1.1//EN" "http://www.w3.org/Graphics/SVG/1.1/DTD/svg11.dtd"><svg width="100%" height="100%" viewBox="0 0 834 254" version="1.1" xmlns="http://www.w3.org/2000/svg" xmlns:xlink="http://www.w3.org/1999/xlink" xml:space="preserve" xmlns:serif="http://www.serif.com/" style="fill-rule:evenodd;clip-rule:evenodd;stroke-linejoin:round;stroke-miterlimit:2;"><g id="layer1"><g id="g4086"><path id="_58098968" d="M208.721,56.503l-2.95,-0.14l-2.108,0.14l-10.255,-0l-0.984,0.843l0.843,0.281l0.562,0.421c0.562,0.422 0.703,0.703 0.703,1.265l-0,1.405l0.14,1.124c0.422,0.14 0.562,0.561 0.422,0.983l-0.422,1.124l0.562,0.983c-0.281,0.562 -0.281,0.843 0,1.405l-0.281,1.967l-0.281,6.603c0,0.702 -0.14,1.264 -0.702,1.967l-0.984,0.281l-0.702,0.843l0.702,0.14l14.752,0.141l0.28,-0.141c0.703,-0.14 1.124,-0.421 1.265,-1.124l0.421,-1.686l0.422,-2.669l-0.422,-0.14l-0.421,-0l-0.422,0.561l-0.281,0.563l-0.983,1.264l-1.264,0.983l-1.827,0.281l-3.09,0c-1.267,-0.14 -1.972,-0.561 -2.673,-1.266c-0.28,-0.421 -0.421,-0.701 -0.28,-1.122l-0,-1.124l0.28,-1.123l0,-1.405c-0.421,-0.141 -0.421,-0.562 0,-0.703l0.141,-0.983l0.14,-0.141l5.339,0c0.141,0.141 0.141,0.141 0.562,0.141l1.545,0.843l0.703,0.843l0.843,-0.281l0.281,-5.339l-0.281,-0.421l-0.843,0.421l-0.281,0.984c-0.562,0.281 -1.124,0.561 -1.827,0.702l-6.318,-0.14c-0.281,-0.421 -0.422,-0.983 -0.281,-1.545c0.281,-0.422 0.281,-0.984 -0,-1.546l0.421,-1.826l-0.421,-1.967c0.421,-0.421 0.843,-0.421 1.405,-0.421l4.355,0.281l0.843,-0.281l0.702,-0l0.562,0.421c0.562,0 0.843,0.562 1.124,1.124l0.562,1.545l0.562,-0.14l0.281,-3.653l0.421,-0.702c0,-0.422 -0.14,-0.562 -0.562,-0.843l-0,-0.001Z" style="fill:url(#_Linear1);fill-rule:nonzero;"/><path id="_69891472" d="M187.649,59.316l0.984,-1.265c0.28,-0.421 0.842,-0.702 1.404,-0.702l0.281,-0.281l0,-0.281l-2.388,-0.421l-2.107,0.14l-3.372,-0.14l-1.405,0.561c0.422,0.422 0.843,0.562 1.405,0.703l0.843,1.124l0.421,1.264l0.563,4.074c0.14,0.984 -0,1.686 -0.563,2.248l-2.388,-0.562l-6.743,-0c-0.703,0.281 -1.265,-0 -1.826,-0.281l-0,-3.653l0.561,-3.371l1.265,-0.843l0.562,-0.141l0.562,-0.421l-0.562,-0.562c-0.141,-0 -0.281,-0 -0.281,-0.14l-8.008,0.421l-0.562,0.702l1.264,0.422l0.703,0.562c0.281,0.562 0.702,1.264 0.702,1.826l0.141,3.231l-0.141,1.405c0.422,0.562 0.422,1.265 0.141,1.967l-0.141,3.512c-0.14,0.281 -0.14,0.703 0.141,1.124c0.281,0.14 0.281,0.562 0.281,1.124l-0.281,1.826l-0.562,1.686c-0.141,0.703 -0.562,0.843 -0.984,0.843l-0.843,0.421l-0.421,0.562l3.372,0.141l0.281,-0.141l4.917,0.141l0.843,-0.562l-1.124,-0.422c-0.846,-0.284 -1.266,-0.985 -1.407,-1.827l-0.421,-2.248l0.141,-2.528l-0.282,-0.984l0.141,-1.123l0.983,-0.703l7.165,0.14l2.81,-0.983l0.14,1.405l-0.14,1.124l0.14,1.264c0.281,1.546 0.281,3.231 -0.28,4.917c-0,0.562 -0.422,0.984 -0.984,1.265l-1.124,0.561l-0,0.563l8.57,-0l0.14,-0.563l-0.983,-0.421l-0.703,-0.562c-0.561,-1.124 -0.843,-2.248 -0.843,-3.793l-0.14,-3.934c-0.141,-0.421 -0.141,-0.843 0,-1.264l0.14,-2.388l0,-1.546c-0.281,-0.561 -0.281,-1.264 -0.14,-1.826c0.422,-0.843 0.422,-1.545 0.14,-2.388l0.002,0.001Z" style="fill:url(#_Linear2);fill-rule:nonzero;"/><path id="_69815768" d="M159.833,56.503l-0.421,0.421l-8.429,-0.561l-1.546,0.14l-1.264,-0.14l-0.421,0.561l-0.141,0.422l-0.421,3.793l-0.281,0.703c-0.141,0.421 -0.141,0.702 -0,0.983c0.702,-0.281 0.983,-0.422 1.264,-0.983l0.281,-1.265c0.422,-1.264 1.124,-1.826 2.248,-1.826l3.091,-0l-0,1.826c-0,1.124 0.421,1.826 0.983,2.389l-0.562,0.14l-0.421,9.132c0.14,0.842 0.14,1.124 -0,1.685l-0.141,2.108c-0.421,0.562 -0.843,0.983 -1.405,1.124c-0.702,-0 -1.264,0.28 -1.686,0.843c0.141,0.14 0.422,0.281 0.984,0.281l8.851,-0.141l0.421,-0.14c0.14,-0.281 0.14,-0.563 -0.14,-0.843l-2.108,-0.281l-0.562,-2.107l-0.421,-1.687c0.14,-0.561 0.14,-1.404 -0,-2.107l-0.141,-2.107c0.141,-1.124 0.281,-2.529 0.141,-3.934l-0.141,-4.074c0.141,-0.281 0.141,-0.843 0.141,-1.545l0.702,-0.562l3.653,-0.281c0.562,-0 0.983,0.702 1.124,1.826l-0,0.984l0.421,0.983l0.562,-0.281l0.141,-5.479l-0.141,-0.14l-3.652,0.14l-0.563,-0Z" style="fill:url(#_Linear3);fill-rule:nonzero;"/></g><g id="g4091"><path id="_69863352" d="M397.118,132.917l-6.322,0.282l-0.702,0.421l-12.504,-0.562l-2.107,0.141l-2.107,-0.141l-0.421,0.421c-0,0.141 -0.141,0.281 -0.281,0.703l-0.843,5.619c-0,0.422 -0.141,0.843 -0.422,1.265c-0.141,0.562 0,0.843 0.281,1.264c0.984,-0.14 1.545,-0.421 1.545,-1.264l0.703,-2.108c0.421,-1.124 1.124,-1.967 1.826,-2.107l5.901,-0.14l0.28,2.247c0,0.703 0,1.265 0.282,2.108l0.842,1.826c0,-0 -0.28,0.141 -0.421,0.141l-0.14,-0l-0.563,16.156c-0.421,0.702 -0.421,1.685 -0.421,2.669l-2.107,1.826l-1.264,0.281l-0.984,0.702c0.141,0.562 0.562,0.843 1.124,0.562l13.206,-0.14l0.562,-0.422c0.421,-0.421 0.421,-0.561 -0,-0.983l-3.091,-0.281c-0.422,-0.421 -0.422,-0.562 -0.422,-1.405l-0.561,-2.107l-0.422,-2.389l0.141,-2.809l-0.562,-3.231l0.562,-5.901l-0.562,-5.9c0.421,-0.703 0.562,-1.546 0.421,-2.389l0.983,-0.842l5.479,-0.562c0.703,0.14 1.265,1.123 1.546,2.81l0.14,1.545c-0.14,0.421 0,0.983 0.141,1.405c0.562,0.14 0.843,-0 1.264,-0.422l0,-3.934c-0.281,-1.545 0,-2.95 0.281,-4.214l-0.281,-0.141Z" style="fill:url(#_Linear4);fill-rule:nonzero;"/><path id="_58764928" d="M413.947,133.198l-0.983,-0.141l-11.801,0.141c-0.281,0.281 -0.562,0.562 -0.562,1.124c0.562,0.421 1.123,0.561 1.686,0.561l0.983,0.984c0.702,0.843 1.124,1.545 1.124,2.669l-0,2.81l0.14,1.967l-0.14,2.107l0.562,1.405l-0.422,1.686l-0.14,5.198c-0.422,0.562 -0.14,0.983 0.14,1.545c0.422,0.281 0.703,1.124 0.422,1.827c-0.422,0.842 -0.422,1.545 -0.562,2.528l-0.562,2.669l-1.265,1.124c-0.843,0.141 -1.123,0.281 -1.685,0.562c-0.422,0.141 -0.422,0.281 -0.422,0.843l5.058,0l0.281,-0.14l7.305,0.421l0.843,-0.421l0.562,-0.562l-1.826,-0.422c-1.265,-0.702 -1.827,-1.405 -2.248,-2.81c-0.141,-0.983 -0.281,-2.247 -0.281,-3.512l-0.281,-1.826l0.281,-1.686l-0.422,-1.264l0,-0.983c0,-0.422 0,-0.703 0.141,-0.984l0.843,-0.703l0.843,-0.14l10.536,-0c1.405,-0.281 2.81,-0.562 4.074,-1.405l0.281,2.108c-0.281,0.421 -0.281,0.983 0,1.685l0.141,1.967c0.421,2.248 0.14,4.917 -0.562,7.165c-0,0.983 -0.422,1.545 -1.405,1.686c-0.703,-0 -1.264,0.421 -1.826,0.983l0.14,0.703l12.363,-0l0.562,-0.703c-0.421,-0.281 -0.703,-0.281 -1.265,-0.421l-1.404,-0.984c-0.703,-1.686 -1.124,-3.512 -1.265,-5.478l0,-6.042c-0.281,-0.561 -0.281,-1.124 -0.281,-1.545l0.562,-3.793l0,-2.388c-0.562,-0.984 -0.562,-1.967 -0.281,-2.951c0.281,-0.843 0.562,-1.967 0.281,-2.95l1.124,-2.107c0.703,-0.702 1.405,-0.983 2.108,-1.124c0.28,-0.141 0.421,-0.421 0.561,-0.141l0.281,-0.561l-1.686,-0.562l-5.198,0.281l-5.338,-0.141c-0.702,-0.14 -1.264,0.141 -1.686,0.703l0.843,0.562l1.124,0.421c0.562,0.421 1.124,0.702 1.264,1.545l0.562,1.686l0.422,3.091c-0,0.843 0.14,1.967 0.421,3.372c0.281,1.264 0.141,2.247 -0.562,3.231l-3.793,-0.984l-11.239,0l-1.264,-0.421c-0.281,-1.686 -0.281,-3.372 -0,-5.198c-0,-1.827 0.14,-3.512 0.702,-5.198c0.422,-0.562 1.124,-1.124 1.827,-1.124l1.826,-0.703l-0.562,-0.842Z" style="fill:url(#_Linear5);fill-rule:nonzero;"/><path id="_69784960" d="M442.756,133.078l-2.107,0.14c-0.984,-0.14 -1.405,0 -1.546,0.983l2.248,1.124c0.562,0.422 0.843,0.984 0.983,1.686l0,2.248c-0.14,0.281 0,0.421 0,0.562l0.141,1.264c0.562,0.141 0.843,0.703 0.562,1.265l-0.562,1.545c0,0.281 0.281,0.984 0.843,1.264l-0.422,1.405l0.422,1.124c-0.281,0.562 -0.422,1.546 -0.562,2.81l0,3.934c-0.281,1.404 0,2.247 0,2.95c-0.281,0.702 -0.281,1.826 -0.281,2.95c0.281,0.983 -0.141,1.967 -1.124,2.529l-1.264,0.843c-0.562,-0 -0.984,0.421 -1.124,0.983l1.124,0.422l1.264,-0.281l20.651,0.421l0.141,-0.14c0.983,-0.422 1.546,-0.984 1.826,-1.686l0.703,-2.529c0.421,-0.703 0.562,-1.264 0.562,-2.107c-0.141,-0.703 -0.141,-1.265 -0,-1.827c-0,-0.421 -0.141,-0.561 -0.562,-0.421l-0.703,-0c-0.28,0.14 -0.561,0.562 -0.561,0.843l-0.282,0.843l-1.685,1.966l-1.827,1.686l-2.528,0.141l-4.777,-0c-1.405,-0.141 -2.81,-0.703 -3.933,-2.107c-0.141,-0.281 -0.422,-0.843 -0.141,-1.405l-0,-1.405l0.281,-1.826l-0.14,-1.967c-0.422,-0.562 -0.422,-0.984 -0.141,-1.265l0.562,-1.405c-0,0 -0,-0.14 0.281,-0.14l0.421,-0.141l7.446,0.141l1.265,0.421c0.561,0 1.404,0.281 1.685,0.703l1.124,1.686c0.422,-0 0.843,-0.141 1.124,-0.562l0.422,-7.867l-0.141,-0.703c-0.843,-0.141 -1.124,0 -1.405,0.703l-0.562,1.264l-2.388,1.124l-9.553,-0.141c-0.281,-0.843 -0.562,-1.404 -0.281,-2.247c0.281,-0.844 0.281,-1.546 -0,-2.389c0.562,-0.702 0.702,-1.405 0.562,-2.669l-0.562,-2.81c0.562,-0.702 1.124,-0.983 1.826,-0.702l6.462,0.421l0.703,-0.421l0.843,-0l1.545,0.562c0.843,0.14 1.686,0.702 1.686,1.686c0.141,0.983 0.281,1.685 0.843,2.528l0.983,-0.421l0.422,-5.339l0.421,-1.264c0.141,-0.422 0,-0.843 -0.561,-0.983l-7.868,-0c-2.107,0.421 -4.074,0.14 -6.462,-0c-1.967,-0.422 -4.355,-0.422 -6.322,-0Z" style="fill:url(#_Linear6);fill-rule:nonzero;"/></g><g id="g4096"><path id="_69898864" d="M387.462,90.541l-1.686,1.405c-1.124,1.545 -1.827,3.091 -2.108,4.636l-0.14,2.388l-0.843,1.967l0,0.843l0.281,0.421l0.562,2.529c0.14,0.281 0.14,1.124 0.14,1.826c0.281,0 0.422,0.422 0.281,0.563l0.141,0.843l0.702,1.264c0.422,0.14 0.843,0.702 0.984,1.124l0.421,1.686l0.843,1.545l1.405,1.545l1.686,0.983c0.702,0.843 1.686,1.265 2.81,1.406c0.983,0.281 2.107,0.561 3.09,1.404l1.124,0.422l7.727,-0c2.81,-0.281 5.339,-0.843 7.586,-1.967c-0.14,-0.422 -0.562,-0.422 -1.124,-0.422l-1.264,0.281l3.512,-2.107l2.951,-3.231l1.264,-3.231c-0,-0.984 0.14,-1.686 0.702,-2.529c0.281,-0.703 0.422,-1.405 0.281,-2.529c0.281,-1.123 0.281,-2.388 -0,-3.231l-0.562,-3.231c-0.562,-1.967 -1.545,-3.653 -2.669,-5.338c-0.562,-1.124 -1.546,-1.827 -2.248,-2.53c-1.124,-0.561 -2.107,-1.264 -2.95,-1.966l-2.248,-0.984l-1.826,-0.14c-0.843,-0.702 -1.545,-0.843 -2.529,-0.843l-2.669,0.141l-2.108,-0.141l-2.247,0.141l-3.372,1.264l-2.107,0.281c-0.703,0 -1.265,0.281 -1.827,0.843l0.703,0.14l1.405,-0.562l1.405,0.141l-0.282,0.421l-3.231,1.264c-0.842,0.282 -1.405,0.703 -1.966,1.265Zm5.76,0.141l3.512,-2.248l5.198,-0.281l0.281,0.281l4.074,1.264c1.264,0.984 2.388,2.248 3.231,3.653l2.248,4.355c0.562,2.247 0.983,4.777 0.702,7.305c0.281,1.827 -0.14,3.231 -0.702,4.636c-0.281,0.703 -0.422,1.265 -0.843,1.827l-1.967,2.669l-1.264,0.843l-2.529,1.123l-4.355,0.141l-1.405,-0.141l-4.355,-1.966l-0.422,-0.703l-2.95,-2.669c0,-0.843 -0.14,-1.405 -0.421,-1.967l-0.562,-1.685l-0.983,-1.546l-0.563,-1.264l0.422,-1.124c-0,-0.422 -0,-0.984 -0.141,-1.124l0.141,-2.248c-0,-0.843 0.141,-1.545 -0,-2.388c0.421,-0.281 0.562,-0.562 0.562,-0.843l-0,-1.124c-0.141,-0.983 0.14,-1.967 0.983,-2.528c0.703,-0.703 1.545,-1.265 2.108,-2.248Z" style="fill:url(#_Linear7);fill-rule:nonzero;"/><path id="_69832296" d="M423.123,86.326l-1.124,-0.421c-0.563,-0 -0.984,-0 -1.406,0.561l0,0.844l0.563,0.28c0.561,-0.14 1.123,0.281 1.404,0.843l1.124,1.546l0.281,0.843l0,0.843c0.422,1.123 0.984,2.247 0.984,3.512c0.281,1.405 -0.141,2.529 -0.984,3.512c0.422,0.702 0.422,1.264 0.422,2.248l-0.141,2.107c0.141,1.405 0.422,2.95 0.141,4.496l-0,4.355l-0.984,3.371l-0.843,0.984l-0.983,0.562l-0.421,0.421l-0.281,0.702l1.685,0.141l1.405,-0.141l6.182,0l4.495,0.141l0.562,-0.141l0.422,-0.561l-3.513,-1.124c-0.702,-0.141 -1.264,-0.703 -1.685,-1.546l-0.562,-2.248l0.281,-1.124l-0,-0.983c-0.422,-0.983 -0.422,-2.107 -0,-2.809c0.281,-0.984 0.562,-1.967 0.281,-2.81c0.421,-0.562 0.983,-0.843 1.545,-0.562l1.967,-0.281l6.181,0.281c0.984,0.281 1.546,0.843 1.686,1.826l0.422,1.405c-0,0.281 0.421,0.562 0.983,0.562l0.562,-0.562l0.562,-6.884l-0.281,-2.809c-0.702,-0 -1.124,0.14 -1.265,0.561c-0.14,0.703 -0.561,1.265 -0.983,1.686l-1.686,0.984l-9.974,-0l-0,-3.794c0.562,-1.123 0.702,-2.247 0.281,-3.231c-0.281,-1.124 -0.281,-2.107 -0,-3.231c0.421,-0.983 0.983,-1.405 1.966,-1.124l5.901,-0.281l3.372,0.422l1.545,2.107l0.562,2.529l0.702,-0l0.562,-0.703l0.422,-0.702l-0,-3.231c0.14,-0.984 0.14,-2.108 -0,-3.232l-2.529,-0.28l-11.379,0.14c-2.81,0.14 -5.62,0.14 -8.429,-0Z" style="fill:url(#_Linear8);fill-rule:nonzero;"/><path id="_58491952" d="M384.096,136.203l-0.141,0.281c0.703,-0 1.405,-0.141 2.389,-0.141l-2.248,-0.14Z" style="fill:url(#_Linear9);fill-rule:nonzero;"/></g><path id="_58783888" d="M352.317,91.325c-2.809,-1.686 -5.478,-2.81 -8.288,-3.793l-10.537,-2.248l-15.594,-0.14l-0.562,0.14l-6.603,0.421l-1.545,1.265c-0.703,-0.141 -1.264,-0.281 -1.826,-0.703l-1.967,0l-1.545,0.984l-0.562,1.405c-0.281,0.421 -0.562,0.421 -0.703,0.28c-0.983,-1.123 -1.966,-1.966 -3.09,-2.107l-4.355,0l-0.703,0.141l-0.421,0.281l-0.141,0.281l-0.983,0.281l-0.984,-0.984l-0.562,0l-0.702,0.141l-1.686,-0l-1.686,0.281l-0.562,0.281l-0.421,1.545c-0,0 -0,0.141 0.14,0.422l2.81,0.28l0.281,0c0.843,0.281 1.686,0.422 2.669,1.265l1.686,0.843l0.702,1.967c0.844,0.983 1.406,1.826 1.546,2.95l0.141,3.512c0.561,0.703 0.983,1.405 0.983,2.388l-0.141,1.546l-0.281,0.983l-0.14,0.702l0,1.405l0.14,0.703l-0.14,0.14l0,1.405l0.562,1.405c0.141,0.843 0.141,1.405 -0.141,1.967l0,0.421l-0.281,0.141l0,2.107l0.281,-0.141l0.141,1.967l-0.422,2.67c0.422,0.562 0.422,1.405 0.281,2.107l-0.281,2.107l0.422,0.703c0.141,0.843 0.421,1.686 0.141,2.528c-0.282,0.703 -0.282,1.546 -0.282,2.248l0.141,3.372c-0.422,0.843 -0.562,1.545 -0.422,2.529l0,2.388c0.422,0.843 0.563,1.405 0.422,2.107l-0.141,1.686c-0.281,0.422 -0.421,0.984 -0.281,1.545l0.281,3.091l-0.281,3.231c-0.561,0.281 -0.702,0.843 -0.561,1.265l0.561,1.264c0.281,0.422 0.281,0.983 0,1.546c-0.281,0.561 -0.281,1.123 0,1.685c0.422,0.562 0.281,1.265 -0.14,1.827c0,0.843 -0.141,1.966 -0.702,2.809l-0.984,2.81l-2.107,1.546c-0.422,0.14 -0.562,0.14 -0.703,-0l-1.966,-0.422l-2.108,-1.124l-1.686,-0.421l-4.916,-4.917l-5.058,-7.587l-7.446,-13.065l-1.545,-3.372c-0.703,-1.124 -1.264,-2.248 -1.264,-3.653l2.107,-1.686l5.479,-5.9l1.685,-2.81l0.422,-0.702l0.281,-0.983l0.984,-2.248l1.404,-9.272l0,-0.281l-0.421,-1.265l-0,-1.686l-2.107,-5.76c-0.703,-1.826 -2.107,-3.512 -3.794,-5.057c-1.826,-1.686 -3.933,-3.091 -6.04,-4.215l-1.967,-0.702l-0.281,-0l-0.843,-0.141l-0.281,-0.281l-1.826,-0.28l-0,-0.282l-1.686,-0.14l-0.141,-0.281l-0.14,-0l-2.95,-0.281c-0.281,-0 -0.703,-0 -0.843,-0.422l-5.76,-0.14l-1.265,0l-13.908,0.562l-3.933,0.562l-8.289,0.14l-2.529,0.422c-1.124,-0.14 -1.826,0.14 -2.247,0.983l0.421,1.686l1.967,0.14l2.107,0.843l0.281,0l0.703,0.141l1.685,1.545l0.422,0.562l0.702,2.248l0.281,2.248l0,0.702l0.281,0.984l0.421,0.843l0.563,6.041l-0.422,0.14l0,0.14l-0.141,0.843l0.141,5.058c0.422,0.562 0.843,1.124 0.843,1.966l0,0.563l-0.984,2.95c-0.421,1.124 -0.421,2.529 0.141,3.793c0.281,0.562 0.422,1.124 0,1.686l-0.141,1.967l0.141,1.264l0,6.181l0.422,1.265l0.14,0.14l0.984,0.984l-1.124,2.248c-0.563,0.983 -0.563,1.966 -0.422,2.809l0,5.62l0.422,1.124l-0.422,1.405l0,0.983l-0.141,1.686l0,2.529c0,0.983 -0.14,1.685 -0.421,2.388c0.281,0.983 0.281,1.967 -0,2.95l-0.702,2.669l-1.686,1.967l-1.967,1.686l-2.248,0.421c-0.983,0 -1.686,0.422 -2.247,0.984l-0,0.702l0.14,1.124l1.686,0.422l5.619,-0.141l1.124,-0.281l10.396,-0.281l0.141,0l1.405,0.281l1.124,-0l2.388,0.281l4.917,0.141l3.512,-0.141l1.264,-0.281l-0.14,-0l0.562,-0.843l0,-1.124l-1.545,-0.562l-2.248,-0.421l-1.686,-0.843l-2.388,-1.264l-1.827,-2.248l-0.14,-1.405c0.14,-1.124 -0,-1.826 -0.281,-2.81c-0.562,-0.702 -0.703,-1.686 -0.703,-2.669l0.141,-0.843l-0.422,-0.983l-0.14,-3.091l-0,-3.372c0.14,-1.686 0.14,-3.231 0.14,-4.777l-0.562,-5.479l0.282,-0.14l0.561,-0.562l1.124,-0.422l0.141,0l0.281,0.141l2.529,0.422l0.421,-0l4.355,-0.563l3.653,0l0.702,0.563l2.107,4.916l4.777,8.992c0.703,1.685 1.686,3.512 2.95,5.198l3.512,5.338l4.075,4.496l2.107,1.967l2.248,1.264l0.28,-0l0.141,0.281l1.826,0.562l1.967,0.843l1.826,-0l1.405,0.421l0.562,-0.14c0.141,0.14 0.562,0.421 0.983,0.421l0.141,0l1.124,-0.421l6.884,-0l6.603,0.421l0.14,0l0.983,-0.421l1.124,-0l0.703,0.14l0.702,0l1.124,-0.14l6.884,-0l1.405,0.421l14.752,0l0.842,-0.281l0.141,0l3.372,-0.14l4.355,-0.562l0.561,-0.281l2.108,-0.281l0.562,-0l1.405,-0.281l0.281,-0l0.281,-0.281l0.843,0l-0,-0.281c0.983,-0 1.966,-0.14 2.95,-0.703l1.264,-0.561l1.546,-0.422l1.826,-1.264l0.421,-0.281l2.388,-1.405c1.967,-0.843 3.513,-2.107 4.777,-3.653l4.355,-4.917l4.074,-7.446l2.81,-8.288l0,-0.562l0.703,-3.372l-0,-0.562l0.421,-3.091l0.14,-3.231c0.422,-0.983 0.422,-1.826 0.282,-2.81l-0,-0.562l-0.282,-0.983l0.282,-2.248l-1.265,-4.777c-0.281,-1.685 -0.702,-3.231 -1.124,-4.916l-1.826,-4.918c-0.562,-1.685 -1.546,-3.371 -2.81,-4.776l-3.231,-3.934c-2.108,-2.388 -4.636,-4.355 -7.306,-5.9l-0.001,0.001Zm-14.189,4.214l1.545,0.703l3.793,2.529c0.422,0.702 0.984,1.264 1.546,1.826c0.702,0.421 1.124,0.983 1.264,1.967c1.405,1.123 2.529,2.669 3.232,4.495c0.843,0.562 0.983,1.124 0.843,2.107l1.404,1.827l0.562,1.967l0,0.14l-0.14,-0.14c0.14,0.562 0.421,1.124 0.843,1.545l0.702,0.702c-0.14,0.562 -0,1.124 0.421,1.546l0.843,1.264l0.281,0.281c0,0.281 0,0.703 -0.421,1.124c-0.14,0.562 0.14,1.124 0.702,1.264l2.389,0l2.248,-0.28l1.685,0.28l0.141,0l0.421,-0.14l1.124,-0l1.545,0.14l1.265,0.422l0.422,0.141l-0.141,0.561l-0.281,0l-1.124,0.422l-0.141,0.14l-1.404,0c-0,0 -0.141,-0.14 -0.281,-0.14l-0.984,-0l-6.884,0.702l-0.842,0.703l-0.281,0.14l-0.282,0.984l0.844,1.404c0.28,0.422 0.28,0.984 -0,1.546l-0.141,1.545l-0,0.14c-0.14,0.563 -0,1.124 0.141,1.687l0.28,0.421l-0.421,1.545l-0,0.703l0.141,0.983l-0.141,0.562l-0.562,1.405l0,-0.281l-0.702,5.76c-0.281,1.686 -0.843,3.371 -1.827,4.636c-0.843,1.545 -1.686,3.231 -2.247,4.777l-2.951,3.793c-1.404,0.562 -2.669,1.545 -3.652,2.529c-1.124,0.842 -2.389,1.685 -3.793,1.966l-1.827,0.562c-0.561,0.422 -1.124,0.703 -2.107,0.422l-6.603,0.983l-15.734,-1.545l-2.108,0.14l-2.668,-0.702l-0.141,-0l-0.422,-0.703l0.984,-1.123l0.843,-0.563l1.545,-0.421c0.562,-0.14 0.843,-0.421 0.843,-0.843l-0.702,-1.826l-0.141,-3.091l-0.141,-1.124l0,-0.843l0.282,-1.826l-0,-1.124l-0.282,-0.702c-0.28,-0.984 -0.28,-1.967 0,-2.669l0.141,-5.901c-0.141,-1.264 -0.141,-2.388 0,-3.512l-0.421,-22.197c0.421,-0.984 0.562,-1.967 0.28,-2.67c-0.28,-0.983 -0.28,-1.967 0,-2.809c0.141,-0.984 0.141,-2.108 0,-3.091l0,-0.141l0.141,-2.248l-0.141,-0.421l0,-0.702c-0.28,-1.265 -0.28,-2.389 0.141,-3.512l0,-1.265l0.141,-0.562l0.281,0l2.247,-0.562l2.248,-0.281l4.777,-0.702l5.619,0.14l4.777,0.843l0.562,-0.281l1.966,0.422l0.141,0.421c0.562,0.141 1.265,0.562 1.826,0.562l0.422,0.141l2.248,0.983l-0.001,0Zm-77.689,4.356l0.562,1.264l1.826,3.231l0.281,1.124l0.421,0.421l0.422,1.686c0.281,0.984 0.281,2.107 0.14,3.231l-0.421,3.653c-0.562,0.983 -0.703,1.826 -0.703,2.95c0,1.124 -0.421,2.388 -0.983,3.091l-0,0.703l-2.389,3.09c-0.842,0.983 -1.545,1.545 -2.669,1.826l-3.371,1.967l-4.074,0.703l-2.108,-0.281l-1.966,0.14c-0.984,-0.421 -1.827,-0.421 -2.529,0c-0.703,0.141 -1.546,0 -2.107,-0.702l-0,-0.843l-0.563,-4.355l0,-1.265l0.422,-1.123c-0,-0.984 -0,-1.546 -0.281,-2.389c-0.141,-0.562 0,-1.264 0.702,-1.826l-0.421,-1.124l0.141,-1.124l-0,-0.281l0.28,-1.124c0.141,-0.281 0.141,-0.702 -0.28,-1.124l-0.422,-1.264l-0.141,-0.562l0.422,-0.843l0.421,-5.058l0,-0.421l0.141,-3.371c0.14,-0.422 0.14,-0.703 0.14,-1.124l0,-0.282l-0.14,-0.14l0.421,-0.983l-0.281,-2.389l0.281,-2.247c0.141,-0.422 0.562,-0.562 0.843,-0.562c0.422,-0 0.843,-0 1.124,-0.281l6.322,0.281l3.231,0.702l0.141,0l3.653,2.107l1.685,1.686l1.827,3.232l-0,-0Z" style="fill:url(#_Linear10);fill-rule:nonzero;"/><path id="_58360592" d="M97.895,58.169c-0.843,0.281 -1.405,0.281 -2.107,0l-1.686,0.422l-1.686,-0c-0.562,-0 -0.702,0.14 -0.562,0.562l-0.421,0.983l-0,0.843l0.421,0.703l0.281,-0l-0.281,0.14l5.198,0.562l1.826,2.107l0.562,1.546l0.422,0.14l1.545,1.686l0,0.14l-0.281,0.562l-0.281,0.984l-0.281,0.421l-0.14,0.562l0.14,0.983l0.843,0.844l0.14,0.842l0,0.984l-0.14,0.14l-0.421,1.686l0.421,1.686l0.14,0.843c0.141,0.562 0.141,1.264 0,1.966l0.703,6.463l-0,0.281l0.281,0.702l0,0.141l-0.562,3.512l0,0.141l0.281,0.983l-0,0.562l-0.281,1.826l0,0.562l0.141,0.843l1.124,3.793c0.561,0.703 0.702,1.405 0.702,2.248l-0.141,7.586c0.422,1.265 0.422,2.669 0.141,3.934l0.281,1.967c0.14,0.702 -0,1.264 -0.281,1.686l-0.141,2.107l0.422,6.322l-0.281,2.107l0.281,1.124c0.14,0.562 -0,1.124 -0,1.686l-0,0.842l-0.983,3.372c-0,0.984 0.14,1.967 0.702,2.81l-0,0.422l-0.281,1.545l-0.281,0.14l0.281,1.686l0.14,0.422l0.141,0.421l-0,-0.281c0.281,0.984 0.281,1.967 -0,2.95l-0.702,3.372l-0,3.231c0.14,0.984 -0.141,2.107 -0.563,2.81c-0.14,1.265 0,2.81 0.422,4.355c0.281,1.545 0.562,2.81 0.562,4.355c-0.281,1.265 -0.843,2.669 -2.248,3.793c-0.421,0.983 -0.281,1.686 0.281,2.529l0.843,-0.281l0.562,0.281c-0,0.562 0.141,0.702 0.562,0.843l0.281,0.983l-1.265,1.265c-0.421,0.702 -0.983,0.843 -1.685,0.702l-0.141,0.562l0.141,0.562c-0.141,0.843 -0,1.686 0.421,2.388c0.562,0.562 0.562,1.546 0.281,2.529l-1.826,2.248c-0.281,0.702 -0.562,1.545 -1.405,2.107l-2.95,1.827c-0.281,0.28 -0.422,0.28 -0.843,0.28c-0.141,0.141 -0.281,0.141 -0.703,0.141l-0.702,0.421l-1.967,0.281l-0.14,0l-0.562,1.686l-0,0.281l-0.281,0l-0,0.984l1.826,0.281l-1.826,0.28l3.793,0.563l25.99,0.281l1.123,0.421l1.124,0l3.512,-0.421l33.296,0.561c0.562,-0.14 0.983,-0.702 1.124,-1.264l1.124,-2.669c0.562,-0.703 0.702,-1.686 0.562,-2.67l1.685,-5.9l-0.28,0.984l1.966,-7.165l0.844,-1.686l-0,-0.843l0.421,-0.141l3.512,0l0.422,0.422l3.792,0.14l10.959,-0.702l0.983,-0.422l1.124,-0.421l0.983,-0.141l0.703,0c0.562,-0.14 1.124,-0.562 1.686,-0.842l1.966,-0.563l1.124,-0.561l0.843,-0.562l4.355,-1.827c0.843,-0.421 1.827,-0.983 2.529,-1.545l1.265,-1.545c0.843,-0 1.545,-0.282 2.107,-1.124l3.652,-3.793c0.422,-0.703 0.984,-1.124 1.686,-1.265l1.967,-2.81l1.265,-3.512l0.561,-0.562l1.124,-1.545l0.141,-0.843l1.405,-1.405c-0,-1.264 0.14,-2.247 0.702,-3.231c0.562,-0.843 0.843,-2.107 0.562,-3.371l0.562,-1.265l0.983,-4.355l0,-3.653l0.141,-1.264c-0.141,-0.843 -0.141,-1.546 -0.562,-2.388l-0.141,-1.124l0,-1.124c0.141,-2.81 0,-5.339 -0.983,-7.587l-0.702,-2.669c-0.141,-0.843 -0.562,-1.686 -1.405,-2.247c-0.281,-1.827 -0.843,-3.513 -2.248,-4.918c-1.124,-2.669 -2.669,-4.916 -4.636,-7.164l-0.843,-0.984l-9.834,-8.148c-0.702,-0.562 -1.686,-0.984 -2.388,-0.984l-2.389,-0.702c-0.561,-0.562 -1.124,-0.702 -1.685,-0.562l-2.248,-0.983c-0.141,-0 -0.562,-0 -0.703,-0.141l-0.843,-0.562l-5.9,-1.545l-10.396,-0.14l-1.545,0.14l-1.686,-0l-9.273,1.545l-2.247,0.984l-2.389,0.562l-5.619,2.809c-0.562,0.703 -1.686,1.265 -2.81,1.827l-2.248,1.123c-0.561,0.422 -1.123,0.843 -2.107,0.843l-1.124,0.984l-0.562,1.405c-0.14,0.421 -0.562,0.843 -1.124,0.983l-1.264,0.422l-0.984,0.842l0.282,1.265c-0,0.281 -0,0.702 -0.141,1.124l-1.264,-0.281l-0,0.983c-0.562,1.546 -1.405,3.091 -2.248,4.215c-1.264,1.264 -1.967,2.669 -2.388,4.074c-0,0.983 -0.281,2.107 -0.843,3.091c-0,0.702 -0,1.545 -0.281,2.248l-0.703,1.123l-0.14,0.281l-0,0.281l-0.281,0.281l-0,1.405l-0.14,0.422l-0,0.842l-0.282,0.703l0,0.14l0.282,3.653l-0.282,0.562l0.422,3.934l-0.14,0.562l-0.282,1.686l0,0.842l0.422,1.686l-0,0.562l0.281,1.265l2.247,6.883c0.563,2.108 1.406,4.215 2.67,6.041l0.562,1.124l1.264,2.108l0,0.14l6.884,7.867c2.388,2.389 5.198,4.355 8.289,5.901c1.124,0.14 2.388,0.702 3.793,1.686c1.124,0.561 2.669,0.842 3.934,1.264l3.09,1.405c-0.281,1.404 -1.123,2.95 -2.247,4.355l-3.513,3.793c-1.124,1.264 -2.669,2.248 -4.074,2.529l-4.776,0.983c-1.124,0.843 -2.108,1.124 -2.81,1.405l-9.553,-0.984c-0.562,0.141 -0.843,0.422 -0.843,0.984l-0.843,0.843c-1.545,-1.405 -3.372,-1.827 -5.479,-1.405l-6.041,-0.562l-1.545,-5.198l-0,-0.14l-0.141,-0.422l0.141,-0.421l-0,0.843c-0,-0.843 0.14,-1.405 0.983,-1.967c0.422,-0.562 0.984,-1.265 1.124,-2.108l-1.545,-7.586l-0.141,-0.281l-0.421,-1.545l0.421,0.14l0.141,0c0.281,-0.562 0.421,-1.264 0.421,-1.826l0,-2.529l-0.14,-0.281l-0.422,-0.281l0,0.281c0,0.141 0,0.562 -0.281,0.703l-0.281,-1.124l-0.421,-1.545l0.421,-2.81l0,-5.339l0.562,5.76l0,-6.181l-0.562,-2.248l0.141,-29.502c-0,-0.983 -0,-1.967 -0.562,-2.669l0.562,-5.339l-0.562,-5.057c0.421,-0.843 0.562,-1.546 0.562,-2.529c-0,-0.702 -0.141,-1.686 -0.562,-2.248c0.562,-1.124 0.702,-2.248 0.421,-3.371c-0.421,-1.124 -0.281,-2.108 0.281,-3.232c-0.281,-2.669 -0.281,-5.338 -0.14,-8.148l0.421,-8.008l0.562,-1.686l0.422,-2.95l0.843,-2.95l0.843,-1.264l1.123,-1.124c0.703,-1.405 1.686,-2.107 2.95,-2.248l2.951,-1.405l1.967,0l0.421,-0.14l0.843,-0l1.124,-0.422l0.702,0c0.562,0.281 1.124,0 1.545,-0.421l-0.561,-0.141l0.281,-1.264l-0.141,-1.405l-5.338,-0.141l-11.942,0.984l-2.388,0l-1.686,0.14l-17.14,-0.983l0.001,0Zm87.945,35.825l1.686,1.123l4.917,4.075l2.528,2.809l0.422,0.14c0.843,1.124 1.405,2.248 1.967,3.653c0.842,1.124 1.545,2.669 2.107,4.074l2.107,4.356l1.124,4.214c0.702,1.405 0.984,2.81 0.702,4.496c0.703,0.843 0.843,1.826 0.843,2.95c-0.14,1.124 -0.14,2.107 0.141,2.95c0.422,0.422 0.422,0.983 0.422,1.405l-0.422,1.405c-0.141,0.702 -0.141,1.264 0.281,1.826c0.141,0.281 -0,0.843 -0,1.265l-0.281,1.545c-0.562,0.562 -0.702,1.264 -0.562,1.826c0.421,0.843 0.421,1.545 0.421,2.388l-0.421,1.405c-0,0.422 -0.14,0.984 -0.703,1.124l-0.843,3.653l-1.123,1.264c-0.281,0.703 -0.562,1.264 -0.562,1.967c-0.703,1.686 -1.827,3.371 -3.231,4.917c-1.265,1.686 -2.81,2.81 -4.496,3.934c-1.545,1.405 -3.091,2.529 -4.496,3.09l-5.338,1.546c-0.422,0.281 -0.984,0.562 -1.686,0.562l-5.901,0.14l-3.792,-0.421l-2.248,-0.562l-2.248,0.281l-2.389,-0.562l-0.561,-0.562l-0.843,-0.281l-1.827,-1.826c-0.702,-0.562 -1.264,-0.984 -2.248,-1.124l-0.702,-1.124l-1.124,-0.281l-1.124,-0.141c-0.562,-0.421 -0.842,-1.124 -0.842,-1.967c0.28,-0.561 -0.282,-1.124 -1.124,-1.264l-2.389,-3.091l-5.338,-8.991l0.14,-0.421l0,-0.702l-0.14,-0.843l-1.405,-2.108l-0.141,-0.562l0.141,-0.562l0.281,-0.281l-0,-0.281c-0,-0.561 -0.281,-1.124 -0.422,-1.545c-0.421,-0.562 -0.562,-0.843 -0.421,-1.405l-0,-0.281l-0.141,-0.14l-0.983,-3.091c-0.14,-0.562 -0,-1.124 0.421,-1.826c-0.14,-0.843 -0.421,-1.686 -0.702,-2.529c-0.562,-0.843 -0.562,-1.686 -0.281,-2.669c0.562,-1.124 0.562,-2.248 0,-3.091l0.281,-1.826c0.141,-0.562 0.141,-0.843 0.141,-1.405l0.983,-1.967c0.14,-0.703 0.14,-1.264 0.14,-2.248c0.562,-0.983 0.984,-1.967 0.562,-3.09c0.562,-0.562 0.984,-1.265 1.124,-1.967c0.281,-0.984 0.843,-1.827 1.405,-2.388c0,-0.281 0,-0.844 0.281,-1.265l0.562,-0.562l1.124,-1.545l0.281,-0.141l0.421,-0.983l1.405,-1.967l1.405,-0.281l0,-0.281l0.281,-1.124l0.702,-0.281l1.827,-0.843l1.826,-1.545c1.405,-0.703 2.529,-1.124 3.793,-1.405l1.265,-0.562c0.281,0 0.702,-0.281 1.264,-0.421l0.421,-0l1.124,-0.141l1.124,-0.421l0.422,-0l4.917,-0.562l1.686,-0l5.9,1.124l6.182,2.248l-0,-0Zm-80.64,1.545l0.281,-4.215l0.281,5.76l-0.562,-1.545l-0,-0Zm14.47,52.26l-0.562,-2.107l0.281,-3.793l0.281,5.9l-0,0Z" style="fill:url(#_Linear11);fill-rule:nonzero;"/><path id="_58850360" d="M747.663,106.444l-3.838,0.711l-4.548,-0l-9.382,-0.853c-0.426,-0.427 -0.852,-0.427 -1.421,-0.427l-1.279,0l-2.132,0.427c-0.142,-0.427 -0.569,-0.427 -0.711,-0.427l-0.995,0.427l-1.137,0.142l-1.137,-0l-0.853,0.142l-0.568,-0.142l-1.848,0.426l-1.99,0.142l-5.828,3.27l-3.553,2.558c-0.711,0.284 -1.279,0.853 -1.706,1.422l-0.568,2.132l-0.711,-0l-0.426,-0.711c-0.711,-0 -1.137,0.426 -1.279,0.711l-2.417,2.7c-0.568,0.569 -0.71,1.137 -0.568,1.706c-0.569,0.995 -0.711,1.705 -0.711,2.842c-0.142,0.995 -0.568,1.848 -1.279,2.559l-0,1.137c-0,0.427 0.284,0.569 0.711,0.711l-0.427,1.279c-0.142,0.284 -0.142,0.853 0.284,1.421c0.284,0.427 0.284,0.995 0,1.564c-0.284,0.426 -0.284,0.853 0.143,1.421c0.71,0.853 0.994,2.274 0.71,3.554c-0,0.568 -0,0.995 0.427,1.421l1.136,0.711c0.143,0.142 0.427,0.568 0.143,1.137l1.989,2.558c0.569,0.711 1.28,1.422 2.275,1.848l0.142,0.427l-0.142,-0l0.568,0.568l1.137,0.995l1.706,0.853l0.569,0.284c0.995,1.137 2.132,1.848 3.269,2.274l1.563,0.569l2.275,1.563c0.852,0.569 1.563,1.137 2.7,1.279c0.995,0.285 1.706,0.853 2.701,1.422c0.568,0.284 1.137,0.568 1.99,0.853l1.99,0.852l4.974,2.417l1.422,0.995l0.426,0.426c0.569,-0.284 1.137,0.142 1.706,0.711l1.137,1.563l0.426,0l1.137,0.711l0.711,1.421c0.995,0.285 1.28,1.138 1.706,2.132c0.142,0.711 0.568,1.422 1.137,2.275l0,0.568l0.569,3.98l-1.138,1.99c-0.568,0.711 -0.71,1.421 -0.568,2.274l-0.711,1.137l-0.568,1.137c-0.569,1.564 -1.138,2.701 -1.99,3.27c-0.569,0.568 -1.28,0.71 -2.132,0.71l-1.991,0.427c-0.994,0.142 -2.132,0.568 -2.984,0.995l-2.275,1.705c-0.71,-0.426 -1.705,-0.711 -3.269,-0.995l-3.979,-0.142l-0.569,-0.426l-0.853,-0l-3.837,-0.569l-0.711,-0.568c-2.132,-0.143 -4.264,-0.711 -5.97,-1.706l-1.279,-0.853c-0.569,-0.284 -1.137,-0.711 -1.564,-0.853c-1.279,-0.568 -2.274,-1.563 -2.842,-2.842l-2.559,-3.554c-0.284,-0.711 -0.71,-1.563 -0.569,-2.701c0,-0.852 -0.141,-1.847 -0.568,-2.842c-0.284,-0.569 -0.284,-1.137 -0.142,-1.564c0.142,-0.568 0.142,-1.137 0,-1.847l-0.142,-1.138l-0.427,-1.137l-0.568,0.143l-0,-0.143c-0.853,0 -1.422,0.143 -1.564,0.569l-0.142,0.142l-0.426,2.132l-0.142,0.711l-0,1.99l0.142,0.71l-0.142,7.249l0.568,3.696l0,0.995l0.711,2.7c-0,0.854 0.142,1.848 0.426,2.843l0,0.143l0.143,0.284c0.568,0.568 0.994,0.71 1.705,0.852l11.655,3.554c0.853,0.142 1.421,0.142 1.99,0c0.569,-0.426 0.711,-0.853 0.711,-1.137l-1.137,-0.285l-0.853,-0.568c-0,-0.426 0.284,-0.568 0.568,-0.568l0.853,-0.427l2.701,0.569c0.995,0.284 1.563,0.568 2.274,1.279l0,0.568l-0.284,0.285l-0.427,0.568l0,0.427l0.569,0.568l8.67,0.142l9.95,-1.421l5.685,-2.416c0.853,-0.569 1.422,-0.853 2.132,-1.279l3.98,-3.27l3.269,-3.695l1.137,-2.417l0.427,-1.137l1.137,-2.558l0.426,-1.848l0.711,-2.559l-0.284,-4.121l-0,-0.285l-0.569,-3.979c-0.284,-1.422 -0.568,-2.559 -1.279,-3.412l-1.706,-3.269c-1.847,-2.558 -4.122,-4.406 -6.68,-6.112c-2.417,-1.848 -4.975,-3.269 -7.391,-4.406l-8.244,-3.696l-2.559,-0.994l-6.111,-3.838c-2.132,-1.137 -3.838,-2.843 -5.544,-4.975c0,-0.711 -0.426,-1.564 -0.853,-2.132l-0.284,-1.137l-0.995,-4.691l0.142,-0.426l0.569,-1.706c-0,-0.995 0.426,-1.563 1.137,-1.99l0,-0.142l0.426,-0.284l2.132,-2.559l3.127,-2.132l0.569,-0.284l0.284,0.284l0.284,0l0.711,-0.426l1.706,-0.142c0.284,-0.427 0.853,-0.569 1.137,-0.853l2.7,0.284l2.701,-0.426c0.426,-0.142 0.995,-0.142 1.279,-0l0.427,0.142l1.137,0l1.706,0.284l1.421,0.285c1.279,0.284 2.416,0.852 3.411,1.563l1.137,0.853l2.132,1.848l1.138,1.279l2.273,4.832l0.285,0.853l0.142,1.848l0,0.142l0.426,1.421l0,0.569c-0.284,0.711 0,1.279 0.285,1.848l1.563,-0c0.569,0.284 0.995,-0.142 1.422,-0.569l0.141,-7.249c-0.141,-2.132 0,-4.264 0.427,-6.111c-0.284,-1.99 0,-3.696 0.284,-5.118l0.285,-1.279l-0,-3.98l-1.137,-0.568l-0,0.142l-0.427,-0.142l-0.426,-0l-0,-0Z" style="fill:url(#_Linear12);fill-rule:nonzero;"/><path id="_58772120" d="M669.184,106.184l-4.451,-0l-0.53,0.318c-0.318,-0.107 -0.424,-0 -0.529,0.317l-2.226,0.106l-3.073,0.742c-0.635,0 -1.059,0 -1.166,0.318l-1.165,0.424c-0.424,-0.636 -0.848,-0.742 -1.272,-0.424l-1.165,0.954l-1.378,0.106l-3.073,3.284l-2.437,1.802c-0.106,0.212 -0.212,0.636 -0.212,1.272c-0.212,0.424 -0.318,0.741 -0.742,0.741l-1.165,0.106c-0.106,0.106 -0.318,-0 -0.424,-0.106l-0.106,-0.317c-0.318,-0 -0.742,0.317 -1.166,0.847l-4.133,6.146c-0.635,1.166 -1.059,2.331 -1.059,3.603c-0.424,0.424 -0.53,0.954 -0.53,1.695l-0.318,1.696l0,-0.318l-0.106,0.424l-0.318,0.741c-0.212,0.742 -0.424,1.484 -0.424,2.332l0,0.106c-0.105,1.165 -0.105,2.331 0,3.391c-0.105,0.741 -0.105,1.483 0,2.331c0,0.742 0,1.589 -0.212,2.331l0.212,0.954l0.318,2.861l0.318,0.318l0,0.106c0,0.106 0,0.318 0.212,0.423l0.636,1.484c-0.212,0.53 0,0.848 0.106,1.272l1.907,4.556l3.391,5.086c1.272,1.802 2.861,3.179 4.662,4.133c1.166,1.378 2.438,2.226 3.921,2.755c1.378,0.742 2.861,1.272 4.239,2.119l3.179,1.166l1.589,0.318l0.53,0.318l2.649,0.53l1.908,0.106l4.344,0.318l0.318,0.106l0.636,-0l1.483,-0.106l1.696,-0l0.318,-0.318l3.391,-0.106l0.317,-0.318l0.212,-0l0.742,-0.106l0.848,0l2.437,-0.636l0.848,-0.106l0.742,-0.106l0.317,-0.212l1.272,-0.424l0.742,-0.105l0.848,-0.107l0.211,-0.317l0.636,-0.106l0.848,-0.424l0.106,-0.212l-0.106,-1.166l-0,-0.212l-0.106,-2.119l0.106,-0.742c-0.318,-0.847 -0.318,-1.589 -0.318,-2.331l0,-0.106c0.212,-0.848 0,-1.695 -0.318,-2.437c-0.106,-0.424 -0.106,-0.742 0.212,-0.954l0,-6.146l0.318,-0.212l0.106,-4.132l0.424,-0.742c-0,-1.06 0.106,-2.014 0.742,-2.649l0.423,-1.272l0.106,0l0,-1.801l-4.662,-0l-0.954,-0.212l-0.848,-0l-1.483,0.212l-1.484,-0l-0.741,0.212c-0.212,-0.212 -0.53,-0 -0.848,0.212l-4.557,-0.636l-6.145,0.212c-0.318,-0 -0.424,0.212 -0.53,0.636l-0,0.105l-0.212,0l-0,0.742l0.742,0.742l4.556,0l2.119,0.954c0.424,-0 0.742,0.105 1.06,0.741l0.424,1.166c-0,0.212 0.106,0.636 0.424,0.636l0.317,0.212c0.107,0.106 0.212,0.424 0.424,0.636l0.212,1.059l0,0.106l0.212,0.636l0,0.424l0.212,2.543l-0.212,1.377l-0.212,4.451l0.318,0.742l0.106,0.318c0.318,0.53 0.212,1.059 -0.212,1.801l0,0.424l0.106,0.424l0.106,1.166c0,0.424 0.53,0.741 1.166,0.847l0.741,0.636l0,-0.212l0,0.424l-0.105,1.06c-0.212,0.424 -0,0.636 0.212,1.059l-1.378,0.53l-0.848,0.212l-0.212,0.212l-0.212,0.106l-2.437,-0l-4.026,-0.53l-6.464,-1.589l-1.696,-0.212l-2.649,-1.378l-1.483,-0.318l-4.557,-4.026l-1.06,-1.484l-1.059,-1.483c-0.212,-0.742 -0.424,-1.378 -1.06,-1.802c-0.741,-0.635 -1.165,-1.166 -1.272,-1.907c-0.529,-0.318 -0.741,-0.53 -0.741,-0.954l-0.106,-1.165l-0.106,-0.636l-0.318,-1.06l-0.741,-1.589l-0,-0.742l-0.531,-3.179l-0.635,-1.378l0.318,-2.861c-0.318,-0.636 -0.424,-1.272 -0.424,-2.013l0.317,-2.331l0,-1.06c0,-0.424 0,-0.848 0.212,-1.166c-0.423,-0.741 -0.423,-1.483 0,-2.013l0.531,-2.013l1.271,-4.027l0.848,-0.954l0.106,-1.271c0.106,-0.424 0.423,-0.742 0.847,-1.06l1.06,-1.801c0.212,-0.742 0.848,-1.166 1.483,-1.484l1.378,-0.848c0.212,-0.424 0.636,-0.741 1.06,-0.847c0.636,-0.742 1.377,-1.272 2.225,-1.59l2.967,-1.166l0.742,0c0.53,-0.212 1.059,-0.423 1.801,-0.529l2.437,-0.53l8.16,0.106l0.953,0.318l3.285,0.635l2.226,1.378c0.529,-0 0.847,0.212 1.271,0.53l1.166,0.742l3.709,4.662c-0.212,0.636 -0,1.166 0.106,1.696l0.317,0.741l-0.317,2.861l-0,0.636l0.847,0.53l1.272,-0.318c0.424,0 0.848,-0.212 1.06,-0.636c0.105,-0.741 0.105,-1.377 -0.319,-1.907l0,-0.53c0,-0.424 0.107,-1.06 0.743,-1.377l-0.212,-0.848l-0.424,-0.212l-0.107,-0.424l0,-0.318c-0.105,-0.318 0,-0.742 0.107,-1.06l0.636,-1.059c-0.424,-0.318 -0.636,-0.742 -0.424,-1.06l-0,-0.106l0.212,-1.059l-0,-0.954l-0.107,-0.106l0,-0.636l0.319,-0.424l0.105,-1.589l0.424,-1.802c0,-0.741 0,-1.271 0.106,-1.695l-0,-0.424l-0.106,-0.212l0,0.212l-0.106,-0.212l0,-0.106l-0.742,-0.106l-0.741,0.106l-0.106,0l-0.53,-0.318l-2.013,0.212l-3.074,-0.318l-1.377,-0.318l-11.868,-0.423l-0.847,0.106l-0.742,-0l-0,-0Z" style="fill:url(#_Linear13);fill-rule:nonzero;"/><path id="_69785648" d="M637.295,107.134l-2.649,-0l-1.696,0.212l-1.801,-0l-1.272,0.212l-5.828,-0.636l-4.98,0.212c-0.318,0.105 -0.424,0.424 -0.318,0.635l-0,0.848l0.106,0.424l-0.106,-0l0.318,0.318l0.424,-0l0.847,0.318l0.848,0.106l1.377,0.741l0.636,0.424c0.53,0.424 0.954,0.954 1.272,1.908l0.424,2.225l0.318,2.331l-0,0.106l0.105,0.318l0.107,0.53l-0,0.106c-0.107,0.529 -0.107,0.741 -0.107,1.165l-0.105,0.424c-0.212,0.424 -0.212,1.06 0.105,1.59l0.107,0.318l0.212,0.53l-0,0.423l-0.212,0.742c-0.107,0.318 -0.212,0.53 -0.212,0.848l-0,0.318l0.105,0.424l0.107,0.741l0.212,0.424l0.105,-0.212l0,0.742l-0.317,0.954l0.317,4.239c0.106,0.529 0.318,0.953 0.106,1.483l-0.423,1.589c0.423,0.636 0.635,1.272 0.635,2.119c-0.212,0.954 -0.212,1.59 0.106,2.332c0.318,0.53 0.318,1.165 0,1.589c-0.318,0.424 -0.318,0.954 -0.318,1.59c0.53,0.53 0.636,1.271 0.53,2.013c-0.318,0.636 -0.318,1.378 -0.212,2.119l0.212,2.226c-0.212,0.953 0,1.589 0.212,2.437l-0.212,0.424l-0.636,0.318l-1.695,-2.12l-2.014,-2.013l-0.741,0.424c-0.53,-0.424 -0.848,-0.848 -0.954,-1.378l-0.106,-1.801c-0.742,-1.06 -1.802,-2.119 -2.861,-2.967l-0.636,-0.742l-0.953,-0.53c-0.212,-0.742 -0.424,-1.483 -1.166,-2.013l-1.696,-1.696l-0.847,0l-0.742,0.424c-0.742,0 -1.272,-0.424 -1.272,-0.848l0,-3.284l-3.072,-3.709c-1.272,-1.272 -2.12,-2.437 -2.967,-3.921l-13.246,-18.544c-0.424,-0.424 -0.848,-0.53 -1.589,-0.53l-3.921,0.53l-8.371,-0l-1.589,-0.424l-1.696,0.106l-1.166,-0.212l-1.271,0.212c-0.424,0 -0.742,0.318 -0.742,0.742l-0,1.271l0.318,0.212l0.106,0.106l0.636,0c1.695,0 3.072,0.318 4.662,0.848c1.166,0.424 2.119,0.954 3.179,1.801l0.742,0.742l0.212,0.318l-0.106,0.318l-0.318,0.954l-0.106,0.106l0,1.06l0.318,0.529l-0,1.272l0.212,1.377l-0,0.848l-0.106,0l0,1.907l0.318,1.06l-0.212,5.722l0.318,2.12l-0,-0.106l0.106,0.529l-0.106,-0.423l0.106,6.251l-0,0.319l-0.106,0.423l-0,0.318l0.318,0.848l-0.212,2.755c-0.212,0.424 -0.106,0.954 0.212,1.483c0.212,0.636 0.212,1.06 -0,1.802l0.212,1.06c-0,0.423 -0,0.847 -0.107,1.377l-0.105,0.848l-0,0.848c0.212,0.424 0.212,0.848 0.212,1.589l-0.212,1.378c0.424,0.741 0.529,1.589 0.529,2.437l-0.423,2.861l-0.106,0.318l-0,0.424c-0.424,0.53 -0.424,1.059 -0.212,1.801c-0,0.636 -0.106,1.272 -0.424,1.695c-0.106,0.848 -0.53,1.59 -0.954,2.226l-1.695,1.696c-0.742,-0 -1.272,0.317 -1.802,0.741c-0.529,0.212 -1.271,0.53 -1.801,0.53l-0.742,0.848l-0.318,0.741l0,0.106l0.212,0.636l0.424,0.106l3.815,-0.318l0.212,-0.106l1.271,0l2.226,-0.318l2.225,0l0.636,0.318l0.848,0l1.165,-0.318l0.424,0l1.06,0.424l1.589,-0.106l1.484,0.106l3.603,0c0.317,0.212 0.529,0 0.741,-0.424l0.106,-1.165l-0.424,-0.636c-1.271,0 -2.437,-0.318 -3.285,-0.742l-2.755,-2.119l-1.059,-3.921c-0.319,-1.377 -0.319,-2.649 -0.212,-4.133l-0.107,-1.589l0.107,-1.695l-0.424,-4.663l0.212,-1.378l-0,-0.211l-0.212,-1.06l-0,-1.378l0.212,-2.119l-0.212,-3.603c-0.424,-1.059 -0.212,-2.013 -0,-2.967l-0,-0.212l-0.106,-0.953l-0,-0.424l0.106,-1.06l-0,-0.954l-0.424,-1.907l0.318,-0.636l-0,-0.318l0.106,-0.423c0.212,-0.636 0.212,-0.848 -0.106,-1.272l-0.106,-1.272c0.106,-0.635 0.106,-1.059 -0,-1.483l-0.424,-1.272c-0.212,-0.847 -0,-1.483 0.53,-2.013c0.53,0 0.954,0.106 0.954,0.53l0.317,0.424l0.106,0.742c0.212,0.423 0.424,0.635 1.06,0.847c-0,0.848 0.318,1.484 1.166,1.908c0.635,0.423 1.271,0.953 1.695,1.589c0.53,0.53 0.954,1.06 1.272,1.801c0.105,0.636 0.741,1.166 1.377,1.59l1.06,1.484c0.53,0.636 1.166,1.377 1.589,2.119l0.53,0.848l3.603,4.026c0.954,0.848 1.695,1.696 2.225,2.967c0.742,0.53 1.484,1.378 1.908,2.331l1.907,2.332c0.212,0.742 0.636,1.377 1.271,1.801c0.636,0.424 1.06,0.954 1.378,1.696l2.967,2.861c0.742,1.589 1.801,2.861 3.179,3.708l0.742,1.166l-0,0.212l0.742,0.636l0.635,0.848l0.318,0.106c0.424,0.211 0.742,0.635 0.848,1.165l4.98,5.722c0.212,0.53 0.636,0.848 1.06,1.272l0.424,0.106l0.954,1.059l2.437,0.424l0.318,-0.106l1.271,0l1.59,-0.636l-0.106,-0.741c0.106,-1.484 0.106,-2.967 -0,-4.557l-0,-7.841l0.106,-0.53l-0,-0.212l-0.106,-0.53l-0.53,-4.98l0.318,-0.636l-0,-1.589l-0.106,-0.212l-0,-0.742l-0.212,-0.106l0.212,0.106l-0,-0.954c-0,-0.317 -0,-0.424 0.106,-0.741l-0.318,-9.855l0.212,-1.272l-0,-0.318l-0.318,-4.132l-0.106,-1.59c0,-0.953 0,-1.801 0.106,-2.755l0.318,-1.272l-0,-5.086l0.53,-1.907c0.212,-0.424 0.212,-0.848 0.424,-1.272l0.741,-1.589l0.318,-0.424l0.106,-0.742c0.106,-0.212 0.424,-0.53 0.742,-0.635l0.424,-0.319l0.954,-0.847l0.635,-0.318l0.636,-0l0.318,-0.106l1.166,0c0.105,-0.318 0.317,-0.318 0.529,-0.318l0.212,-0.106l0.107,-0.424l0.105,-0.636l-0.105,-0.847l-2.756,-0.212l-0,-0Z" style="fill:url(#_Linear14);fill-rule:nonzero;"/><path id="_58847072" d="M621.61,146.769l0,-0.53l-0.317,-0.318c-0.424,0.318 -0.53,0.636 -0.53,1.06l0.423,0.318l0.319,-0.212l0.105,-0.318l0,-0Z" style="fill:url(#_Linear15);fill-rule:nonzero;"/><path id="_39474488" d="M552.531,107.722l-1.06,0.116l-4.662,0.116l-0.318,0l0.106,0c1.271,0.234 2.649,0.7 3.921,1.632c0.847,0.582 1.377,2.447 1.695,5.476c0.106,3.029 0.106,6.408 -0,10.369l-0.848,11.185l0,1.748l-0.318,0.466l0,0.699c-0.105,0.233 -0.317,0.466 -0.105,0.815c0.211,0.35 0.211,0.816 0.105,1.166c-0.424,0.466 -0.424,0.699 -0.105,1.165c0.211,0.349 0.423,0.699 0.529,1.281c-0.318,0.583 -0.318,1.399 -0.106,2.214c0.212,0.583 0.212,1.282 0.106,2.097l-0.529,1.165c0.211,0.7 0.211,1.399 -0,2.214l-0.636,2.214l0.636,1.398l0.847,1.282l0.106,1.048c0,0.35 0,0.699 -0.318,1.165c0.424,0.583 0.636,1.399 0.424,1.981l-0.212,2.214l-2.119,-0.233l-0.318,0.699l-0.106,0.932l-0.636,0.815l-0.848,0.466l-2.543,0.816l-0.848,-0.117c-0.211,0.234 -0.317,0.234 -0.635,0.234l-0.636,0.932l-0,0.815c0.106,0.117 0.212,0.35 0.212,0.699c0.212,0.117 0.318,0.117 0.424,0.117l4.874,-0.117c0.848,0.117 1.908,0.117 2.861,0l2.119,-0.233l0.742,0.233l1.59,-0.349l0.424,-0l1.165,0.349l3.073,-0.349l6.782,0.349l0.53,0.117l0.212,-0l0.53,-0.117c0.424,-0.233 0.741,-0.349 0.529,-0.816c-0.105,-0.466 0,-0.815 0.318,-1.281c-0.423,-0.349 -0.742,-0.349 -1.166,-0.349l-0.953,-0l-2.861,-1.049c-0.848,-0.466 -1.589,-1.282 -2.013,-2.214l-0.848,-3.262c-0.318,-2.447 -0.424,-4.894 -0.318,-7.457l-0,-7.457l-0.106,-1.048c0.212,-0.932 0.212,-1.981 0.212,-3.146l-0,-3.262l-0.106,-1.282l0.318,-15.961l0.424,-1.865l-0,-0.466l0.529,-2.563c0.212,-1.048 0.636,-2.214 1.272,-3.029l0.424,-0.932l0.212,-0.233l0.53,-0.349l3.073,-0.816l0.106,-0l0.848,-0.117l0.105,-0.349l0.212,-0.35l0.212,-1.514l-16.001,0.116l-1.059,-0.233l0,-0Z" style="fill:url(#_Linear16);fill-rule:nonzero;"/><path id="_69785216" d="M550.187,117.944c0.106,0.53 0.212,1.06 0.636,1.484l1.06,1.377l-0,0.954l0.847,1.907l-0,0.106l-0.106,0.848l0.106,0.212c0.318,0.424 0.53,0.847 0.424,1.378l-0.106,1.589l0.106,1.589l-0,1.272l0.318,1.272l-0.318,3.072l0.424,0.636l0.106,-6.782c-0,-3.496 -0.106,-6.145 -0.53,-8.371c-0.318,-2.225 -0.848,-3.496 -1.696,-4.132l-3.285,-2.12c-0.847,-0.53 -1.695,-0.847 -2.543,-0.742l-0.424,0.742l0,0.848l0.212,0.106l1.06,0.318c0.424,-0 0.848,0.106 1.272,0.636c0.423,-0 0.953,0.105 1.271,0.529l1.166,1.272l-0,0Z" style="fill:url(#_Linear17);fill-rule:nonzero;"/><path id="_69788496" d="M553.465,138.286l-0,1.042l-0,-1.042Z" style="fill:url(#_Linear18);fill-rule:nonzero;"/><path id="_69809472" d="M517.504,89.335l-1.272,-0.318l-3.602,-0.742c-0.424,-0.203 -0.954,-0.418 -1.484,-0.418l-1.907,0.212c-0.318,-0.212 -0.53,-0.424 -0.954,-0.424c-0.424,-0 -0.742,0.212 -1.06,0.424l-6.675,-0.424l-7.418,0.424l-3.179,-0.212l-12.822,0.848l-2.332,0.529c-0.847,-0.212 -1.589,0.106 -2.331,0.53l-0.106,0.424l0,0.742l0.53,0.953l2.649,0.318l1.59,0.424c0.847,0.106 1.695,0.53 2.543,1.272l1.165,1.271l0.212,0.848l0.212,0.212l0,0.106l0.106,0.106l0.424,1.06l-0,-0.212l0.106,0.847l0.212,2.437c-0.212,0.954 0,1.59 0.424,2.332l-0.212,0.742l0.212,0.953c0.106,0.318 0.318,0.636 0.318,1.06l-0.212,0.53l-0,0.105l-0.106,0.636l-0,3.285l-0.318,0.742l-0,0.106l0.318,0.954l-0,3.285l0.106,3.285l-0.318,4.026l0.212,2.014c0.106,2.013 0.318,4.132 -0,6.146l0.106,20.239l-0.106,1.907l-0.424,4.769l-0.636,1.483l-0.848,1.802l-1.695,1.801c-0.424,0.742 -1.166,1.166 -2.013,1.272c-1.272,0.847 -2.544,1.166 -4.027,1.166c-0.53,0.105 -0.636,0.424 -0.848,0.847l0,1.59l0.318,0.106l0.848,0.317l1.165,-0.317l6.252,-0l0.318,-0.106l0.424,-0l1.484,-0.318l0.212,-0l1.165,-0.106l4.874,0l0,0.106l7.418,0.318l0.318,0.106l5.086,0.424l0.848,-0.107l0.318,0l0.424,-0.423l0.317,-1.908l-0.317,-0.212l-0.424,0l-0,-0.212l-0.848,-0.105l-0.742,-0.107l-2.119,-0.635l-6.252,-0.424l0.106,-0.424l0.106,0l0.636,-0.424l0.106,-0.106l0.529,-0.211l0.954,-0.531l0,-0.847l-0.423,-1.59l-0,-1.589l-0.319,-1.272l-0.741,-1.695c0.318,-0.742 0.318,-1.484 0.318,-2.331l-0,-2.226c0.106,-0.741 -0,-1.165 -0.318,-1.695c-0.106,-1.484 -0.106,-2.861 -0,-4.345c0.318,-1.271 0.318,-2.649 -0,-4.132l0.318,-1.378l-0,-0.212l-0.318,-1.589l0.318,-0.424l0.847,0.212l3.285,-0.212l0.848,0.212l0.318,-0l0.212,-0.212l1.589,-0l8.16,0.212l0.317,-0l0.424,0.105l0.107,0l0.211,0.107l0.636,0.741c0.636,0.106 0.742,0.424 0.848,0.848l0.212,1.166c-0,0.317 0.212,0.529 0.636,0.848c-0.107,0.529 -0.107,1.165 0.212,1.907l0.529,1.271l0.212,0.424l0.636,0.53l1.06,0l3.391,-0.848l1.483,0c0.53,0.106 0.954,0.106 1.484,0l0.317,0l1.06,0.53l0.212,0.318c0.212,0.424 0.318,0.742 0.212,1.166l0,-0.106l-0.212,0.529l0,0.319l-0.106,0.105l-0.636,0l-0.635,-0.847l-0.424,0.318l-0.318,0.529l0.53,0.424l0.424,0.106l0.211,0c0.212,0.212 0.212,0.318 0.212,0.742l-0.106,0.636l0,0.106l-0.106,0.317l-0.318,0l-0.317,-0.211l-0.212,-0.636l-0.424,-0.742l-0.318,-0.318l-0.53,-0.424l-0.424,-0.424l-0.954,0.742l-0.847,0.212l-0.106,0l-0.53,-0.636c-0.318,-0.318 -0.636,-0.424 -0.954,-0.212l-0.212,0.424l0.212,1.06l0,0.954c0.318,0.847 0.742,1.483 1.166,1.695c0.636,0.318 0.742,0.636 0.848,1.06l-0,0.106l0.211,0.424l0.848,0.847l0.742,0.742l0.106,0.318l0.106,0.106l-0.106,0.636l-0.106,0.211l-0,0.319l0.106,-0l0.106,0.317l0.848,0.636c0.317,0.212 0.635,0.318 0.847,0.742l0.212,0.318l-0.212,1.166l0.424,0.635l0,0.318l0.53,0.106l0.212,0.318l0.318,1.166l0.424,0.423l0.317,0.318l0,0.106l0.107,0l-0,0.106c-0.107,0.424 0.105,1.06 0.529,1.378l0.848,0.847l0.212,0.212l0.106,0.848l0.318,0.742l2.967,4.556l0.742,1.166c0.529,0.53 1.165,1.166 1.589,1.908l0.954,1.271l0.318,0.212l0.318,0.424c0.635,-0.106 1.059,0.212 1.483,0.742l1.378,1.483l0.106,0.53l0.423,0.318l1.166,0.106l0.954,-0l0.318,-0.106l-0,-0.212l-1.06,-0.424l1.377,-0.106l0.53,0.106l0.53,0.318l0.742,-0l0.848,-0.106l0.424,0.106l0.212,0.106l0.105,0.318l-0.424,0.318l0,0.953c0.424,0.424 1.166,0.742 1.802,0.742l2.225,0.106l0,-0.424c-0.212,-0.106 -0.424,-0.106 -0.636,-0.106l-0.423,-0.742l-0.636,-0.529l1.271,-0.212c0.106,0.212 0.106,0.318 0.106,0.529l-0.106,0.212l0.106,0.212c0.848,0.954 1.696,1.378 2.755,1.06l6.677,-1.377l0.529,-0.636l0.212,-0.53l0,-0.318l0.106,-0.954c-0.318,-0.318 -0.742,-0.318 -1.166,-0.318l-1.271,0l-1.378,-0.635l-6.146,-3.921l-1.165,-1.166c-0.424,-0.424 -0.848,-0.424 -1.484,-0.106c-0.424,0.53 -0.53,1.272 -0.424,2.12l-1.378,-1.59l0,-1.06c0.107,-0.317 0.319,-0.424 0.531,-0.636l0.847,-0.317c-0.212,-0.636 -0.847,-1.484 -1.695,-2.543l-2.226,-2.438c0,-0.423 -0.212,-0.953 -0.635,-1.271l-1.696,-2.437c-0.53,-0.212 -0.742,-0.742 -0.53,-1.378c-1.165,-1.271 -2.013,-2.755 -2.649,-4.345l-1.377,-2.119c-0.318,-0.848 -0.742,-1.695 -1.484,-2.331l-1.377,-2.331c-0.106,-0.636 -0.424,-1.166 -0.848,-1.802c-0.636,-0.424 -0.848,-1.06 -0.848,-1.695l-1.589,-2.649c-0.318,-1.06 -0.848,-1.908 -1.696,-2.755c-0.317,-1.06 -0.741,-2.014 -1.483,-2.756l-2.119,-3.496l-0,-0.636l0.423,-0.424l0.954,-0.954c0.318,-0.212 0.742,-0.424 1.166,-0.424l2.013,-1.801c0.742,-0.53 1.165,-1.378 1.484,-2.119l1.377,-1.59l1.483,-1.907l0.848,-1.484l2.12,-5.722l0.847,-5.086l0,-1.484c-0.106,-0.847 -0.106,-1.589 -0.423,-2.331l-0.424,-2.331l-0.106,-0.212l-0.742,-4.133l0,-0.106l-0.318,-0.212l-0.53,0.212l-0.318,-0.212l-0.318,0l-0.423,-0.529l-0.636,-0c-0.318,-0 -0.636,0.105 -0.742,0.424l0.742,1.059l-0.318,0.848l-0.424,0.529l-0.424,-0.423l-0.318,-0.53l-0.317,-0.318l-0.212,-0.636l-0.424,0l-1.59,0.212c-0.318,0 -0.424,0.106 -0.424,0.318l0.106,0.106l0,0.106l-0.106,0.318l-1.06,-0.106l-0.847,0.106l-0.742,-0.424l0,-0.106l0.318,-0.742l1.06,-0.318l0.106,-0.318l4.874,-2.543l0.424,-0.741l-0,-0.848l-0.106,-0.106l-3.815,-3.179c-1.377,-1.166 -2.861,-1.802 -4.238,-2.226l-1.272,-0.635l-0.848,-0.106c-0.212,-0.106 -0.318,-0.318 -0.741,-0.318l-1.166,-0.106l0.001,-0.005Zm-2.437,7.523c0.847,0.636 1.589,1.484 2.225,2.438c1.272,1.589 2.119,3.496 2.967,5.192l0.53,2.649c0.318,0.954 0.424,2.225 0.318,3.921c-0.318,1.377 -0.318,2.225 0.106,2.543l0.741,0.636l0.53,0.105l-0.423,0.318c-0.212,0 -0.424,0.106 -0.53,0.212l-0.424,2.013c-0,0.743 -0.318,1.272 -0.424,1.696l0.106,1.06c-0.212,0.423 -0.424,0.953 -0.424,1.589c-0,0.636 -0.212,1.06 -0.53,1.484c-0.424,0.318 -0.424,0.635 -0.424,0.953c0.106,0.424 0.106,0.636 0,0.954l-1.059,0.954l-2.861,3.708c-0.848,0.954 -2.014,1.378 -3.285,1.484l-0.424,0.318l-0.53,0.212l-0.742,0.424l-0.847,0.212l-1.802,0.848l-4.45,-0l-3.074,-0.107c-0.635,-0.317 -1.271,-0.317 -1.801,0l-2.013,-0.317l-0.106,-0l0.106,-0.212l-1.166,-0.424c-0.53,0.212 -0.848,-0 -0.848,-0.424l-0.423,-1.06l-0,-9.431c-0.106,-0.212 -0.106,-0.423 -0,-0.742c0.105,-0.317 0.317,-0.635 0.317,-1.059l0,-0.954c-0.423,-0.847 -0.635,-1.695 -0.423,-2.543c0.106,-0.848 0.106,-1.802 0.106,-2.649l0.423,-1.378l0,-2.437l-0.318,-0.318l-0.211,-1.271l-0,-0.848l0.106,-0.742l0.423,-1.059l-0.106,-0.53l0,-5.404c0.424,-0.53 0.424,-1.272 0.424,-2.014c-0.212,-0.636 -0.212,-1.377 -0.424,-2.013l0.424,-0.848l0.424,-0.106l1.695,-0.53l5.193,-0.424l2.437,0.106l0.212,0l0,0.106l1.166,0l0.847,0.212l0.106,0.106l0.636,0.106l0.106,0l3.073,0.742c0.424,0.106 0.636,0.318 1.06,0.53l1.06,0.53l0.105,0.105l0.107,0l2.013,1.378l-0,0Z" style="fill:url(#_Linear19);fill-rule:nonzero;"/></g><defs><linearGradient id="_Linear1" x1="0" y1="0" x2="1" y2="0" gradientUnits="userSpaceOnUse" gradientTransform="matrix(10.1734,12.1207,-12.1207,10.1734,196.119,61.2631)"><stop offset="0" style="stop-color:#c90;stop-opacity:1"/><stop offset="0.01" style="stop-color:#cf9a00;stop-opacity:1"/><stop offset="0.26" style="stop-color:#fdffce;stop-opacity:1"/><stop offset="0.36" style="stop-color:#cf9a00;stop-opacity:1"/><stop offset="0.44" style="stop-color:#cf9a00;stop-opacity:1"/><stop offset="0.66" style="stop-color:#cf9a00;stop-opacity:1"/><stop offset="0.77" style="stop-color:#e1e8e2;stop-opacity:1"/><stop offset="0.99" style="stop-color:#c89a00;stop-opacity:1"/><stop offset="1" style="stop-color:#cf9a00;stop-opacity:1"/></linearGradient><linearGradient id="_Linear2" x1="0" y1="0" x2="1" y2="0" gradientUnits="userSpaceOnUse" gradientTransform="matrix(11.5637,13.7795,-13.7795,11.5637,172.527,60.3616)"><stop offset="0" style="stop-color:#c90;stop-opacity:1"/><stop offset="0.01" style="stop-color:#cf9a00;stop-opacity:1"/><stop offset="0.26" style="stop-color:#fdffce;stop-opacity:1"/><stop offset="0.36" style="stop-color:#cf9a00;stop-opacity:1"/><stop offset="0.44" style="stop-color:#cf9a00;stop-opacity:1"/><stop offset="0.66" style="stop-color:#cf9a00;stop-opacity:1"/><stop offset="0.77" style="stop-color:#e1e8e2;stop-opacity:1"/><stop offset="0.99" style="stop-color:#c89a00;stop-opacity:1"/><stop offset="1" style="stop-color:#cf9a00;stop-opacity:1"/></linearGradient><linearGradient id="_Linear3" x1="0" y1="0" x2="1" y2="0" gradientUnits="userSpaceOnUse" gradientTransform="matrix(10.0732,12.0045,-12.0045,10.0732,150.441,61.3192)"><stop offset="0" style="stop-color:#c90;stop-opacity:1"/><stop offset="0.01" style="stop-color:#cf9a00;stop-opacity:1"/><stop offset="0.26" style="stop-color:#fdffce;stop-opacity:1"/><stop offset="0.36" style="stop-color:#cf9a00;stop-opacity:1"/><stop offset="0.44" style="stop-color:#cf9a00;stop-opacity:1"/><stop offset="0.66" style="stop-color:#cf9a00;stop-opacity:1"/><stop offset="0.77" style="stop-color:#e1e8e2;stop-opacity:1"/><stop offset="0.99" style="stop-color:#c89a00;stop-opacity:1"/><stop offset="1" style="stop-color:#cf9a00;stop-opacity:1"/></linearGradient><linearGradient id="_Linear4" x1="0" y1="0" x2="1" y2="0" gradientUnits="userSpaceOnUse" gradientTransform="matrix(15.0256,17.9105,-17.9105,15.0256,376.804,140.29)"><stop offset="0" style="stop-color:#c90;stop-opacity:1"/><stop offset="0.01" style="stop-color:#cf9a00;stop-opacity:1"/><stop offset="0.26" style="stop-color:#fdffce;stop-opacity:1"/><stop offset="0.36" style="stop-color:#cf9a00;stop-opacity:1"/><stop offset="0.44" style="stop-color:#cf9a00;stop-opacity:1"/><stop offset="0.66" style="stop-color:#cf9a00;stop-opacity:1"/><stop offset="0.77" style="stop-color:#e1e8e2;stop-opacity:1"/><stop offset="0.99" style="stop-color:#c89a00;stop-opacity:1"/><stop offset="1" style="stop-color:#cf9a00;stop-opacity:1"/></linearGradient><linearGradient id="_Linear5" x1="0" y1="0" x2="1" y2="0" gradientUnits="userSpaceOnUse" gradientTransform="matrix(17.1492,20.4349,-20.4349,17.1492,409.82,138.807)"><stop offset="0" style="stop-color:#c90;stop-opacity:1"/><stop offset="0.01" style="stop-color:#cf9a00;stop-opacity:1"/><stop offset="0.26" style="stop-color:#fdffce;stop-opacity:1"/><stop offset="0.36" style="stop-color:#cf9a00;stop-opacity:1"/><stop offset="0.44" style="stop-color:#cf9a00;stop-opacity:1"/><stop offset="0.66" style="stop-color:#cf9a00;stop-opacity:1"/><stop offset="0.77" style="stop-color:#e1e8e2;stop-opacity:1"/><stop offset="0.99" style="stop-color:#c89a00;stop-opacity:1"/><stop offset="1" style="stop-color:#cf9a00;stop-opacity:1"/></linearGradient><linearGradient id="_Linear6" x1="0" y1="0" x2="1" y2="0" gradientUnits="userSpaceOnUse" gradientTransform="matrix(15.0657,17.9506,-17.9506,15.0657,444.559,139.969)"><stop offset="0" style="stop-color:#c90;stop-opacity:1"/><stop offset="0.01" style="stop-color:#cf9a00;stop-opacity:1"/><stop offset="0.26" style="stop-color:#fdffce;stop-opacity:1"/><stop offset="0.36" style="stop-color:#cf9a00;stop-opacity:1"/><stop offset="0.44" style="stop-color:#cf9a00;stop-opacity:1"/><stop offset="0.66" style="stop-color:#cf9a00;stop-opacity:1"/><stop offset="0.77" style="stop-color:#e1e8e2;stop-opacity:1"/><stop offset="0.99" style="stop-color:#c89a00;stop-opacity:1"/><stop offset="1" style="stop-color:#cf9a00;stop-opacity:1"/></linearGradient><linearGradient id="_Linear7" x1="0" y1="0" x2="1" y2="0" gradientUnits="userSpaceOnUse" gradientTransform="matrix(17.7904,21.2242,-21.2242,17.7904,391.989,91.7391)"><stop offset="0" style="stop-color:#c90;stop-opacity:1"/><stop offset="0.01" style="stop-color:#cf9a00;stop-opacity:1"/><stop offset="0.26" style="stop-color:#fdffce;stop-opacity:1"/><stop offset="0.36" style="stop-color:#cf9a00;stop-opacity:1"/><stop offset="0.44" style="stop-color:#cf9a00;stop-opacity:1"/><stop offset="0.66" style="stop-color:#cf9a00;stop-opacity:1"/><stop offset="0.77" style="stop-color:#e1e8e2;stop-opacity:1"/><stop offset="0.99" style="stop-color:#c89a00;stop-opacity:1"/><stop offset="1" style="stop-color:#cf9a00;stop-opacity:1"/></linearGradient><linearGradient id="_Linear8" x1="0" y1="0" x2="1" y2="0" gradientUnits="userSpaceOnUse" gradientTransform="matrix(14.665,17.4618,-17.4618,14.665,425.767,93.2577)"><stop offset="0" style="stop-color:#c90;stop-opacity:1"/><stop offset="0.01" style="stop-color:#cf9a00;stop-opacity:1"/><stop offset="0.26" style="stop-color:#fdffce;stop-opacity:1"/><stop offset="0.36" style="stop-color:#cf9a00;stop-opacity:1"/><stop offset="0.44" style="stop-color:#cf9a00;stop-opacity:1"/><stop offset="0.66" style="stop-color:#cf9a00;stop-opacity:1"/><stop offset="0.77" style="stop-color:#e1e8e2;stop-opacity:1"/><stop offset="0.99" style="stop-color:#c89a00;stop-opacity:1"/><stop offset="1" style="stop-color:#cf9a00;stop-opacity:1"/></linearGradient><linearGradient id="_Linear9" x1="0" y1="0" x2="1" y2="0" gradientUnits="userSpaceOnUse" gradientTransform="matrix(0.72119,0.841435,-0.841435,0.72119,384.777,135.922)"><stop offset="0" style="stop-color:#c90;stop-opacity:1"/><stop offset="0.01" style="stop-color:#cf9a00;stop-opacity:1"/><stop offset="0.26" style="stop-color:#fdffce;stop-opacity:1"/><stop offset="0.36" style="stop-color:#cf9a00;stop-opacity:1"/><stop offset="0.44" style="stop-color:#cf9a00;stop-opacity:1"/><stop offset="0.66" style="stop-color:#cf9a00;stop-opacity:1"/><stop offset="0.77" style="stop-color:#e1e8e2;stop-opacity:1"/><stop offset="0.99" style="stop-color:#c89a00;stop-opacity:1"/><stop offset="1" style="stop-color:#cf9a00;stop-opacity:1"/></linearGradient><linearGradient id="_Linear10" x1="0" y1="0" x2="1" y2="0" gradientUnits="userSpaceOnUse" gradientTransform="matrix(22.0555,-22.0566,22.0566,22.0555,551.97,-293.809)"><stop offset="0" style="stop-color:#cc9a00;stop-opacity:1"/><stop offset="0.01" style="stop-color:#c89a00;stop-opacity:1"/><stop offset="0.24" style="stop-color:#c89a00;stop-opacity:1"/><stop offset="0.35" style="stop-color:#fcff9e;stop-opacity:1"/><stop offset="0.43" style="stop-color:#cf9a00;stop-opacity:1"/><stop offset="0.44" style="stop-color:#c89a00;stop-opacity:1"/><stop offset="0.56" style="stop-color:#cc9a00;stop-opacity:1"/><stop offset="0.69" style="stop-color:#ffce00;stop-opacity:1"/><stop offset="0.99" style="stop-color:#cc9a00;stop-opacity:1"/><stop offset="1" style="stop-color:#cc9a00;stop-opacity:1"/></linearGradient><linearGradient id="_Linear11" x1="0" y1="0" x2="1" y2="0" gradientUnits="userSpaceOnUse" gradientTransform="matrix(22.2907,-22.2862,22.2862,22.2907,512.722,-294.329)"><stop offset="0" style="stop-color:#cc9a00;stop-opacity:1"/><stop offset="0.01" style="stop-color:#c89a00;stop-opacity:1"/><stop offset="0.24" style="stop-color:#c89a00;stop-opacity:1"/><stop offset="0.35" style="stop-color:#fcff9e;stop-opacity:1"/><stop offset="0.43" style="stop-color:#cf9a00;stop-opacity:1"/><stop offset="0.44" style="stop-color:#c89a00;stop-opacity:1"/><stop offset="0.56" style="stop-color:#cc9a00;stop-opacity:1"/><stop offset="0.69" style="stop-color:#ffce00;stop-opacity:1"/><stop offset="0.99" style="stop-color:#cc9a00;stop-opacity:1"/><stop offset="1" style="stop-color:#cc9a00;stop-opacity:1"/></linearGradient><linearGradient id="_Linear12" x1="0" y1="0" x2="1" y2="0" gradientUnits="userSpaceOnUse" gradientTransform="matrix(12.5181,-12.5068,12.5068,12.5181,678.016,-292.169)"><stop offset="0" style="stop-color:#cc9a00;stop-opacity:1"/><stop offset="0.01" style="stop-color:#c89a00;stop-opacity:1"/><stop offset="0.24" style="stop-color:#c89a00;stop-opacity:1"/><stop offset="0.35" style="stop-color:#fcff9e;stop-opacity:1"/><stop offset="0.43" style="stop-color:#cf9a00;stop-opacity:1"/><stop offset="0.44" style="stop-color:#c89a00;stop-opacity:1"/><stop offset="0.56" style="stop-color:#cc9a00;stop-opacity:1"/><stop offset="0.69" style="stop-color:#ffce00;stop-opacity:1"/><stop offset="0.99" style="stop-color:#cc9a00;stop-opacity:1"/><stop offset="1" style="stop-color:#cc9a00;stop-opacity:1"/></linearGradient><linearGradient id="_Linear13" x1="0" y1="0" x2="1" y2="0" gradientUnits="userSpaceOnUse" gradientTransform="matrix(10.1321,-10.1321,10.1321,10.1321,662.342,-296.704)"><stop offset="0" style="stop-color:#cc9a00;stop-opacity:1"/><stop offset="0.01" style="stop-color:#c89a00;stop-opacity:1"/><stop offset="0.24" style="stop-color:#c89a00;stop-opacity:1"/><stop offset="0.35" style="stop-color:#fcff9e;stop-opacity:1"/><stop offset="0.43" style="stop-color:#cf9a00;stop-opacity:1"/><stop offset="0.44" style="stop-color:#c89a00;stop-opacity:1"/><stop offset="0.56" style="stop-color:#cc9a00;stop-opacity:1"/><stop offset="0.69" style="stop-color:#ffce00;stop-opacity:1"/><stop offset="0.99" style="stop-color:#cc9a00;stop-opacity:1"/><stop offset="1" style="stop-color:#cc9a00;stop-opacity:1"/></linearGradient><linearGradient id="_Linear14" x1="0" y1="0" x2="1" y2="0" gradientUnits="userSpaceOnUse" gradientTransform="matrix(10.7993,-10.7993,10.7993,10.7993,645.55,-296.387)"><stop offset="0" style="stop-color:#cc9a00;stop-opacity:1"/><stop offset="0.01" style="stop-color:#c89a00;stop-opacity:1"/><stop offset="0.24" style="stop-color:#c89a00;stop-opacity:1"/><stop offset="0.35" style="stop-color:#fcff9e;stop-opacity:1"/><stop offset="0.43" style="stop-color:#cf9a00;stop-opacity:1"/><stop offset="0.44" style="stop-color:#c89a00;stop-opacity:1"/><stop offset="0.56" style="stop-color:#cc9a00;stop-opacity:1"/><stop offset="0.69" style="stop-color:#ffce00;stop-opacity:1"/><stop offset="0.99" style="stop-color:#cc9a00;stop-opacity:1"/><stop offset="1" style="stop-color:#cc9a00;stop-opacity:1"/></linearGradient><linearGradient id="_Linear15" x1="0" y1="0" x2="1" y2="0" gradientUnits="userSpaceOnUse" gradientTransform="matrix(0.203558,-0.192239,0.192239,0.203558,655.331,-299.271)"><stop offset="0" style="stop-color:#cc9a00;stop-opacity:1"/><stop offset="0.01" style="stop-color:#c89a00;stop-opacity:1"/><stop offset="0.24" style="stop-color:#c89a00;stop-opacity:1"/><stop offset="0.35" style="stop-color:#fcff9e;stop-opacity:1"/><stop offset="0.43" style="stop-color:#cf9a00;stop-opacity:1"/><stop offset="0.44" style="stop-color:#c89a00;stop-opacity:1"/><stop offset="0.56" style="stop-color:#cc9a00;stop-opacity:1"/><stop offset="0.69" style="stop-color:#ffce00;stop-opacity:1"/><stop offset="0.99" style="stop-color:#cc9a00;stop-opacity:1"/><stop offset="1" style="stop-color:#cc9a00;stop-opacity:1"/></linearGradient><linearGradient id="_Linear16" x1="0" y1="0" x2="1" y2="0" gradientUnits="userSpaceOnUse" gradientTransform="matrix(7.66694,-8.42459,8.42459,7.66694,633.303,-297.462)"><stop offset="0" style="stop-color:#cc9a00;stop-opacity:1"/><stop offset="0.01" style="stop-color:#c89a00;stop-opacity:1"/><stop offset="0.24" style="stop-color:#c89a00;stop-opacity:1"/><stop offset="0.35" style="stop-color:#fcff9e;stop-opacity:1"/><stop offset="0.43" style="stop-color:#cf9a00;stop-opacity:1"/><stop offset="0.44" style="stop-color:#c89a00;stop-opacity:1"/><stop offset="0.56" style="stop-color:#cc9a00;stop-opacity:1"/><stop offset="0.69" style="stop-color:#ffce00;stop-opacity:1"/><stop offset="0.99" style="stop-color:#cc9a00;stop-opacity:1"/><stop offset="1" style="stop-color:#cc9a00;stop-opacity:1"/></linearGradient><linearGradient id="_Linear17" x1="0" y1="0" x2="1" y2="0" gradientUnits="userSpaceOnUse" gradientTransform="matrix(2.86097,-2.86097,2.86097,2.86097,633.755,-304.167)"><stop offset="0" style="stop-color:#cc9a00;stop-opacity:1"/><stop offset="0.01" style="stop-color:#c89a00;stop-opacity:1"/><stop offset="0.24" style="stop-color:#c89a00;stop-opacity:1"/><stop offset="0.35" style="stop-color:#fcff9e;stop-opacity:1"/><stop offset="0.43" style="stop-color:#cf9a00;stop-opacity:1"/><stop offset="0.44" style="stop-color:#c89a00;stop-opacity:1"/><stop offset="0.56" style="stop-color:#cc9a00;stop-opacity:1"/><stop offset="0.69" style="stop-color:#ffce00;stop-opacity:1"/><stop offset="0.99" style="stop-color:#cc9a00;stop-opacity:1"/><stop offset="1" style="stop-color:#cc9a00;stop-opacity:1"/></linearGradient><linearGradient id="_Linear18" x1="0" y1="0" x2="1" y2="0" gradientUnits="userSpaceOnUse" gradientTransform="matrix(0.360615,-0.360615,0.360615,0.360615,553.305,139.008)"><stop offset="0" style="stop-color:#cc9a00;stop-opacity:1"/><stop offset="0.01" style="stop-color:#c89a00;stop-opacity:1"/><stop offset="0.24" style="stop-color:#c89a00;stop-opacity:1"/><stop offset="0.35" style="stop-color:#fcff9e;stop-opacity:1"/><stop offset="0.43" style="stop-color:#cf9a00;stop-opacity:1"/><stop offset="0.44" style="stop-color:#c89a00;stop-opacity:1"/><stop offset="0.56" style="stop-color:#cc9a00;stop-opacity:1"/><stop offset="0.69" style="stop-color:#ffce00;stop-opacity:1"/><stop offset="0.99" style="stop-color:#cc9a00;stop-opacity:1"/><stop offset="1" style="stop-color:#cc9a00;stop-opacity:1"/></linearGradient><linearGradient id="_Linear19" x1="0" y1="0" x2="1" y2="0" gradientUnits="userSpaceOnUse" gradientTransform="matrix(15.1303,-15.1303,15.1303,15.1303,617.743,-295.177)"><stop offset="0" style="stop-color:#cc9a00;stop-opacity:1"/><stop offset="0.01" style="stop-color:#c89a00;stop-opacity:1"/><stop offset="0.24" style="stop-color:#c89a00;stop-opacity:1"/><stop offset="0.35" style="stop-color:#fcff9e;stop-opacity:1"/><stop offset="0.43" style="stop-color:#cf9a00;stop-opacity:1"/><stop offset="0.44" style="stop-color:#c89a00;stop-opacity:1"/><stop offset="0.56" style="stop-color:#cc9a00;stop-opacity:1"/><stop offset="0.69" style="stop-color:#ffce00;stop-opacity:1"/><stop offset="0.99" style="stop-color:#cc9a00;stop-opacity:1"/><stop offset="1" style="stop-color:#cc9a00;stop-opacity:1"/></linearGradient></defs></svg>